<?xml version="1.0" encoding="UTF-8" standalone="no"?>
<!-- Created with Inkscape (http://www.inkscape.org/) -->

<svg
   xmlns:dc="http://purl.org/dc/elements/1.1/"
   xmlns:cc="http://creativecommons.org/ns#"
   xmlns:rdf="http://www.w3.org/1999/02/22-rdf-syntax-ns#"
   xmlns:svg="http://www.w3.org/2000/svg"
   xmlns="http://www.w3.org/2000/svg"
   xmlns:sodipodi="http://sodipodi.sourceforge.net/DTD/sodipodi-0.dtd"
   xmlns:inkscape="http://www.inkscape.org/namespaces/inkscape"
   width="436"
   height="480"
   id="svg2"
   sodipodi:version="0.32"
   inkscape:version="0.48.2 r9819"
   inkscape:export-filename="C:\Documents and Settings\Administrator\Desktop\Sumer1.jpg.png"
   inkscape:export-xdpi="90"
   inkscape:export-ydpi="90"
   version="1.0"
   sodipodi:docname="Cities_of_Sumer_(en).svg"
   inkscape:output_extension="org.inkscape.output.svg.inkscape">
  <defs
     id="defs4">
    <inkscape:perspective
       sodipodi:type="inkscape:persp3d"
       inkscape:vp_x="0 : 240 : 1"
       inkscape:vp_y="0 : 1000 : 0"
       inkscape:vp_z="436 : 240 : 1"
       inkscape:persp3d-origin="218 : 160 : 1"
       id="perspective112" />
  </defs>
  <sodipodi:namedview
     id="base"
     pagecolor="#ffffff"
     bordercolor="#666666"
     borderopacity="1.0"
     inkscape:pageopacity="0.0"
     inkscape:pageshadow="2"
     inkscape:zoom="2.2791666"
     inkscape:cx="222.72681"
     inkscape:cy="346.29328"
     inkscape:document-units="px"
     inkscape:current-layer="layer1"
     showguides="true"
     inkscape:guide-bbox="true"
     inkscape:window-width="1366"
     inkscape:window-height="706"
     inkscape:window-x="-8"
     inkscape:window-y="-8"
     width="436px"
     height="480px"
     borderlayer="true"
     showgrid="false"
     inkscape:window-maximized="1" />
  <metadata
     id="metadata7">
    <rdf:RDF>
      <cc:Work
         rdf:about="">
        <dc:format>image/svg+xml</dc:format>
        <dc:type
           rdf:resource="http://purl.org/dc/dcmitype/StillImage" />
        <dc:title />
      </cc:Work>
    </rdf:RDF>
  </metadata>
  <g
     inkscape:label="Capa 1"
     inkscape:groupmode="layer"
     id="layer1"
     transform="translate(668.955, 16.1155)">
    <rect
       style="opacity: 1; fill: rgb(191, 205, 233); fill-opacity: 1; stroke: none; stroke-width: 0pt; stroke-miterlimit: 4; stroke-dasharray: none; stroke-opacity: 1;"
       id="rect7416"
       width="440.42648"
       height="478.81229"
       x="-668.19507"
       y="-14.625654" />
    <path
       style="fill:#ece2e2;fill-opacity:1;stroke:#ece2e2;stroke-width:0pt;stroke-miterlimit:4;stroke-opacity:1;stroke-dasharray:none"
       d="m -283.81,316.4572 c 0.33672,0.84179 0.78011,1.65168 1,2.53125 0.46793,1.87167 1.00001,5.07491 1,7.09375 10e-6,1.78571 0.89085,6.14412 1.09375,7.25 -0.0192,-0.0727 -0.0312,-0.0622 -0.0625,-0.1875 -0.44166,-1.76671 -5.3769,-1.40242 -4.5625,-3.03125 0.54189,-1.08377 1.19468,-4.81508 0.5,-7.59375 -0.43235,-1.72946 -0.96562,-4.99069 1.03125,-6.0625 z"
       id="path3318"
       inkscape:connector-curvature="0" />
    <path
       style="fill:#ece2e2;fill-opacity:1;stroke:#ece2e2;stroke-width:0pt;stroke-miterlimit:4;stroke-opacity:1;stroke-dasharray:none"
       d="m -507.40375,219.1447 c 0.93481,0.64338 1.82975,1.36799 2.84375,1.875 1.26252,0.63124 6.13855,3.53126 1.53125,3.53125 -4.35399,-1e-5 -3.6663,-4.47766 -4.375,-5.40625 z"
       id="path3304"
       inkscape:connector-curvature="0" />
    <path
       style="fill:#ece2e2;fill-opacity:1;stroke:#ece2e2;stroke-width:0pt;stroke-miterlimit:4;stroke-opacity:1;stroke-dasharray:none"
       d="m -276.2475,218.98845 c 1.31684,0.3292 4.74529,1.42422 3.53125,2.03125 -2.51015,1.25506 -5.02304,1.54474 -3.53125,-2.03125 z"
       id="path3302"
       inkscape:connector-curvature="0" />
    <path
       style="fill:#ece2e2;fill-opacity:1;stroke:#ece2e2;stroke-width:0pt;stroke-miterlimit:4;stroke-opacity:1;stroke-dasharray:none"
       d="m -307.06,159.8947 c 0.75293,1e-5 1.3008,1.18262 2.03125,1 2.76095,-0.69022 4.26766,-1.3237 7.5625,-0.5 3.10232,0.77558 5.92696,1e-5 9.09375,0 2.95731,1e-5 4.2399,2.14518 2.53125,5.5625 -1.47362,2.94727 -1.16751,5.19875 -3.03125,7.0625 -2.53634,2.53637 -0.15664,2.54658 2.53125,4.5625 1.87114,1.40336 1.19234,6.06249 3.53125,6.0625 3.98727,1e-5 4.03124,0.46621 4.03125,4.53125 10e-6,4.62318 4.26143,0.85821 5.0625,4.0625 0.5844,2.33758 -0.22105,6.17826 0.5,9.0625 0.38591,1.54362 4.79858,5.11807 4.5625,6.0625 -0.67286,2.69148 -3.96238,4.08132 0,6.0625 1.68503,0.84251 4.15991,3.86323 0,3.03125 -2.15055,-0.43012 -6.58303,0.54106 -5.0625,-2.5 0.9619,-1.92378 -1.29397,-5.01431 -3.53125,-2.03125 -0.23778,0.31705 -4.24416,6.16791 -5.0625,4.53125 -0.70581,-1.41163 -1.11304,-4.57215 -3.03125,-5.53125 -2.27875,-1.13937 -8.18041,1.44042 -7.5625,-1.03125 0.9229,-3.69152 3.57071,-0.53945 6.0625,-3.03125 0.72415,-0.72413 -1.41598,-2.57325 -0.5,-3.03125 0.36749,-0.18372 6.55927,-4.17106 2,-3.03125 -2.52176,0.63045 -4.03127,0.9144 -4.03125,-2 10e-6,-3.14488 -2.73181,-4.71223 -2.03125,-5.0625 2.55471,-1.27734 5.16816,-0.39432 2.03125,-3.53125 -1.43351,-1.43352 -2.53518,-4.03126 -4.5625,-4.03125 -2.96579,1e-5 -5.96485,-4.00156 -7.0625,-3.5625 -1.93352,0.77343 -7.53505,-0.0275 -6.0625,-1.5 0.65753,-0.65751 3.53125,-4.02147 3.53125,-5.0625 10e-6,-4.76938 0.9621,-2.93084 3.5625,-5.53125 1.63067,-1.63065 1.35279,-3.03125 -2.53125,-3.03125 -2.98445,1e-5 -5.49965,0.59445 -6.5625,-1.53125 -1.53652,-3.07306 -1.49161,-5.57599 2,-6.0625 z"
       id="path3300"
       inkscape:connector-curvature="0" />
    <path
       style="fill:#ece2e2;fill-opacity:1;stroke:#ece2e2;stroke-width:0pt;stroke-miterlimit:4;stroke-opacity:1;stroke-dasharray:none"
       d="m -605.56,128.0822 c 3.6015,1e-5 2.30045,0.30045 4.03125,2.03125 0.61111,0.6111 3.83125,5.26255 2.03125,7.0625 -1.2584,1.25836 -2.17695,3.56769 -4.03125,4.03125 -0.30459,0.0762 -7.465,2.70337 -5.0625,-0.5 1.50171,-2.00226 5.6696,-3.13441 5.0625,-5.5625 -0.54179,-2.16717 -2.44575,-5.22271 -2.03125,-7.0625 z"
       id="path3298"
       inkscape:connector-curvature="0" />
    <path
       style="fill:#ece2e2;fill-opacity:1;stroke:#ece2e2;stroke-width:0pt;stroke-miterlimit:4;stroke-opacity:1;stroke-dasharray:none"
       d="m -364.96625,116.11345 c 1.09842,-0.0232 2.09965,0.0461 2.84375,0.34375 1.029,0.41163 6.13805,3.03125 7.09375,3.03125 2.98812,1e-5 4.2836,0 7.0625,0 1.54762,1e-5 7.0625,0.24894 7.0625,2.03125 2e-5,2.75283 -3.02515,3.03125 -4.53125,3.03125 -0.5051,1e-5 -1.04125,-0.12249 -1.53125,0 -3.22578,0.80645 -2.678,2.53125 -6.0625,2.53125 -2.19838,1e-5 -5.6241,0.85961 -7.0625,0.5 -3.22678,-0.80669 -2.06695,-0.99108 -4.03125,-0.5 -3.7322,0.93305 -2.1694,-3.03124 -3.5625,-3.03125 -4.4909,1e-5 -3.31125,0.27997 -5.53125,2.5 -2.79668,2.79668 -0.86585,-0.33465 -3.03125,-2.5 -1.7308,-1.73084 -6.23385,-3.07994 -7.59375,-3.53125 2.40442,-1.44264 4.3533,-1.42669 6.5625,-2.53125 2.21542,-1.1077 3.73255,-1.53125 7.09375,-1.53125 1.3407,1e-5 3.38795,-0.305 5.21875,-0.34375 z"
       id="path3296"
       inkscape:connector-curvature="0" />
    <path
       style="fill:#fffed8;fill-opacity:1;stroke:#ece2e2;stroke-width:0pt;stroke-miterlimit:4;stroke-opacity:1;stroke-dasharray:none"
       d="m -228.23625,-42.02175 -439.71875,0 -1.87751,509.58798 438.96372,-1.47629 1.63254,-71.64294 -4.75,0.25 c -0.52042,-0.45978 -1.01945,-1.04528 -1.84375,-1.375 -0.50724,-0.20292 -0.97091,-0.24767 -1.40625,-0.21875 -0.43533,0.0289 -0.83678,0.14124 -1.25,0.28125 -0.82644,0.28 -1.65066,0.65625 -2.6875,0.65625 -1.78571,-2e-5 -3.58928,0 -5.375,0 -1.90476,-2e-5 -3.78274,0 -5.6875,0 -1.90474,-2e-5 -3.81399,0 -5.71875,0 -0.66735,-2e-5 -1.5828,0.30746 -2.5,0.6875 -0.91719,0.38002 -1.83615,0.82822 -2.5,1.09375 -2.22013,0.88804 -3.41168,1.51834 -5.375,2.5 -1.00221,0.50108 -1.32744,1.12528 -1.875,1.625 -0.27377,0.24984 -0.61214,0.46892 -1.09375,0.625 -0.4816,0.15606 -1.12749,0.25 -2.03125,0.25 -0.47082,-2e-5 -1.11813,-0.68834 -1.6875,-1.4375 -0.56936,-0.74918 -1.04743,-1.5636 -1.15625,-1.78125 -0.46414,-0.92832 -2.60687,-2.40292 -3.21875,-3.21875 -0.19205,-0.25608 3.24017,-2.17767 3.5625,-2.5 0.76713,-0.76716 1.42692,-1.27141 2.09375,-1.6875 0.66684,-0.41611 1.33623,-0.73062 2.1875,-1.15625 0.83927,-0.41965 1.37584,-0.82387 1.96875,-1.1875 0.59292,-0.36365 1.26892,-0.70005 2.34375,-0.96875 0.98048,-0.24515 2.14722,-0.24878 3.34375,-0.1875 1.19654,0.0613 2.41837,0.1875 3.4375,0.1875 0.66862,-2e-5 0.85634,-0.13633 0.78125,-0.34375 -0.0751,-0.20744 -0.43587,-0.49032 -0.90625,-0.78125 -0.94074,-0.58188 -2.31866,-1.20246 -2.75,-1.375 -0.68246,-0.27301 -1.42555,-0.8455 -2.125,-1.46875 -0.69944,-0.62327 -1.33295,-1.3017 -1.78125,-1.75 -0.73913,-0.73916 -0.96184,-1.46052 -1.28125,-2.09375 -0.1597,-0.31663 -0.35814,-0.6276 -0.65625,-0.875 -0.2981,-0.24742 -0.6825,-0.44406 -1.28125,-0.59375 -0.66992,-0.1675 -1.25878,-0.19181 -1.78125,-0.15625 -0.52246,0.0355 -0.98393,0.15009 -1.4375,0.28125 -0.90714,0.26229 -1.77202,0.59375 -2.875,0.59375 -0.54547,-2e-5 -0.7377,-0.19814 -0.75,-0.5 -0.0123,-0.30188 0.15772,-0.70494 0.4375,-1.125 0.55958,-0.84014 1.46873,-1.72654 1.75,-1.9375 0.63411,-0.47558 1.25227,-1.18228 1.71875,-2 0.46649,-0.81774 0.78125,-1.75983 0.78125,-2.65625 10e-6,-0.72944 0.42668,-1.48498 1,-2.125 0.57333,-0.64004 1.31114,-1.15557 1.875,-1.4375 0.30887,-0.15445 0.70071,-0.1654 1.15625,-0.0625 0.45555,0.10288 0.94661,0.32912 1.4375,0.5625 0.98179,0.46673 1.9511,1.05368 2.40625,1.28125 0.55285,0.2764 1.01225,0.34135 1.40625,0.28125 0.39401,-0.0601 0.69612,-0.2342 0.96875,-0.5 0.54528,-0.53161 0.90283,-1.36815 1.1875,-1.9375 0.18892,-0.37785 0.041,-0.63898 -0.28125,-0.84375 -0.32224,-0.20479 -0.80949,-0.35339 -1.375,-0.4375 -1.13101,-0.16825 -2.5034,-0.125 -3,-0.125 -1.90476,-10e-6 -3.81398,0 -5.71875,0 -1.55851,-10e-6 -2.62689,-0.12979 -3.53125,-0.375 -0.90435,-0.24523 -1.63577,-0.61477 -2.53125,-1.0625 -1.84305,-0.92155 -3.39189,-1.66828 -5.34375,-2.15625 -0.9886,-0.24718 -2.182,-0.24929 -3.375,-0.1875 -1.19299,0.0618 -2.38113,0.1875 -3.40625,0.1875 -0.47807,-2e-5 -0.90535,-0.0954 -1.28125,-0.28125 -0.37589,-0.18584 -0.72533,-0.45849 -1.03125,-0.75 -0.61183,-0.58304 -1.09994,-1.28744 -1.625,-1.8125 -0.45065,-0.45068 -0.51409,-0.86639 -0.34375,-1.21875 0.17035,-0.35238 0.5674,-0.63052 1.0625,-0.875 0.99022,-0.48898 2.33184,-0.75 2.84375,-0.75 2.14287,-10e-6 4.29464,0 6.4375,0 1.02058,-2e-5 1.82996,0.26339 2.65625,0.53125 0.8263,0.26784 1.65609,0.53125 2.6875,0.53125 1.85113,-2e-5 3.8248,0.34375 6.09375,0.34375 2.02383,-3e-5 4.03869,0 6.0625,0 1.28998,-3e-5 2.15627,-0.0436 2.84375,-0.25 0.68749,-0.20642 1.17827,-0.55327 1.78125,-1.15625 0.83261,-0.83262 2.35192,-1.63318 3.21875,-2.5 0.20216,-0.20217 -0.0342,-0.3929 -0.5,-0.53125 -0.46576,-0.13837 -1.16706,-0.22911 -1.90625,-0.3125 -1.47837,-0.1668 -3.10743,-0.25 -3.3125,-0.25 -1.09278,-3e-5 -2.19617,0.0583 -3.28125,0.0312 -1.08507,-0.0271 -2.12955,-0.12614 -3.125,-0.375 -0.41113,-0.10281 -0.77577,-0.30732 -1.0625,-0.5625 -0.28672,-0.2552 -0.49757,-0.56465 -0.6875,-0.90625 -0.37985,-0.68321 -0.59173,-1.46067 -0.75,-2.09375 -0.1245,-0.49809 -0.42895,-0.96077 -0.8125,-1.40625 -0.38354,-0.4455 -0.85458,-0.88749 -1.34375,-1.3125 -0.97834,-0.85005 -2.01955,-1.69536 -2.5,-2.65625 -0.32616,-0.65237 -0.85833,-0.96519 -1.3125,-1.40625 -0.22707,-0.22055 -0.44382,-0.47135 -0.59375,-0.8125 -0.14992,-0.34117 -0.21875,-0.76634 -0.21875,-1.34375 10e-6,-0.90867 0.24767,-1.99042 0.59375,-2.96875 0.34609,-0.97835 0.78612,-1.87108 1.1875,-2.40625 0.37688,-0.50251 0.77026,-0.73227 1.15625,-0.8125 0.386,-0.0802 0.77053,0.015 1.125,0.1875 0.70895,0.34503 1.28593,1.00468 1.625,1.34375 0.60905,0.60901 0.92729,1.59518 1.15625,2.5625 0.22897,0.9673 0.39541,1.91582 0.65625,2.4375 0.7258,1.45154 1.59793,3.0785 2.5,4.28125 0.493,0.6573 1.3529,1.4354 2.25,2.09375 0.89711,0.65833 1.81356,1.21928 2.375,1.5 0.47273,0.23634 0.93423,0.26317 1.34375,0.1875 0.40953,-0.0757 0.75879,-0.25563 1.09375,-0.5 0.66992,-0.48876 1.19651,-1.16526 1.5,-1.46875 0.59649,-0.5965 0.83323,-1.25965 1.15625,-1.53125 0.16152,-0.13582 0.32829,-0.17954 0.59375,-0.0625 0.26547,0.11702 0.60946,0.39071 1.09375,0.875 0.72723,0.72721 0.74035,1.43627 1,1.96875 0.12983,0.26622 0.32828,0.47077 0.71875,0.625 0.39048,0.15421 0.97219,0.25 1.875,0.25 0.68888,-2e-5 1.17122,-0.10906 1.5,-0.3125 0.32879,-0.20346 0.50359,-0.50242 0.5625,-0.84375 0.11782,-0.68267 -0.23584,-1.56543 -0.65625,-2.40625 -0.3444,-0.68884 -1.16972,-1.30523 -2.03125,-1.84375 -0.86152,-0.53854 -1.75482,-1.00361 -2.25,-1.375 -0.34713,-0.26037 -0.58447,-0.57501 -0.75,-0.9375 -0.16552,-0.36251 -0.26536,-0.7829 -0.3125,-1.21875 -0.0943,-0.87172 0,-1.85125 0,-2.84375 10e-6,-1.87918 -0.375,-4.04804 -0.375,-6.0625 10e-6,-0.71923 -0.49733,-1.63874 -1.0625,-2.5 -0.56516,-0.86128 -1.19819,-1.67764 -1.4375,-2.15625 -0.23179,-0.46362 -0.34287,-0.95738 -0.375,-1.46875 -0.0321,-0.51139 0.0223,-1.02188 0.125,-1.53125 0.20547,-1.01875 0.61268,-2.00661 0.96875,-2.71875 0.80938,-1.61879 1.49701,-2.55952 2.5,-3.5625 0.62884,-0.62885 1.35519,-0.88935 2.1875,-1 0.83232,-0.11067 1.77056,-0.0625 2.8125,-0.0625 1.29326,-1e-5 2.4751,-0.14169 3.3125,-0.0312 0.41871,0.0552 0.73555,0.17981 0.96875,0.40625 0.23321,0.22642 0.375,0.53785 0.375,1.03125 1e-5,0.51476 -0.27993,0.90972 -0.625,1.21875 -0.34506,0.30901 -0.76859,0.54351 -1.0625,0.78125 -0.2939,0.23772 -0.46597,0.48034 -0.3125,0.78125 0.15348,0.30089 0.62793,0.65771 1.625,1.15625 0.7409,0.37043 1.67791,0.47207 2.625,0.46875 0.9471,-0.003 1.92209,-0.0937 2.75,-0.0937 0.36722,-2e-5 0.65447,0.14289 0.90625,0.40625 0.25179,0.26334 0.45439,0.62859 0.6875,1 0.23312,0.37139 0.50129,0.76963 0.8125,1.09375 0.31122,0.3241 0.67018,0.56598 1.15625,0.6875 1.87157,0.46786 3.89076,0.63675 5.71875,1.09375 0.45872,0.11466 0.76641,0.36519 0.9375,0.71875 0.1711,0.35354 0.21625,0.81213 0.1875,1.28125 -0.0575,0.93822 -0.45097,1.96445 -0.78125,2.625 -0.5238,1.04758 -0.84719,1.97729 -0.96875,2.9375 -0.12155,0.96019 -0.0145,1.97325 0.28125,3.15625 0.21693,0.86766 0.70014,1.64479 1.34375,2.3125 0.64362,0.66769 1.43868,1.20371 2.21875,1.59375 0.62803,0.31398 1.26489,1.14399 1.78125,2.0625 0.51637,0.91849 0.8988,1.93895 1.0625,2.59375 0.001,0.006 0.0805,0.0782 0.0937,0.0937 l 0,-55.5 c -1.15678,-0.14186 -2.29004,-0.24648 -3.0625,0.0625 -1.3269,0.53075 0.90552,6.81104 1.03125,7.0625 1.37728,2.75449 -1.73584,5.97167 -2.53125,7.5625 -1.69911,3.39821 -2.98198,3.34011 -2.03125,8.09375 0.53933,2.69663 1.01201,6.04573 0.5,8.09375 -0.34477,1.37907 -5.86614,-2.95271 -6.0625,-3.03125 -0.95084,-0.38036 -2.0211,-0.36289 -3.03125,-0.53125 -0.91647,-2.57621 1.53125,-6.1967 1.53125,-9.59375 0,-3.71605 0.2647,-4.58226 -3.53125,-5.53125 -4.14824,-1.03707 -0.20893,-4.88482 1.5,-6.59375 2.58226,-2.58225 2.3304,-0.37045 0.5,-4.03125 -1.41881,-2.83762 0.53125,-5.29833 0.53125,-8.59375 1e-5,-4.16649 -1.97301,-4.97301 -4.0625,-7.0625 -0.62961,-0.62965 -7.58391,-1.54195 -8.5625,-2.03125 -2.32166,-1.16084 -2.72771,-3.81711 -3.03125,-5.03125 -0.63781,-2.55135 4.39342,-3.51117 5.03125,-6.0625 0.63634,-2.54536 4.75736,0.18932 5.5625,-3.03125 0.83705,-3.34813 0.79943,-6.09088 1.5,-9.59375 0.61394,-3.06973 4.18294,-3.42591 -1.5,-4.5625 -2.41063,-0.48214 -6.17173,1.42574 -8.59375,2.03125 -3.40754,0.85186 -4.39763,3.32974 -6.0625,0 -1.33789,-2.6758 -2.30048,-2.03125 -6.0625,-2.03125 -1.91959,-1e-5 -0.14265,-4.1739 -1.5,-5.53125 -2.27383,-2.27385 4.54699,-5.26058 1,-0.53125 -2.40715,3.20952 4.11257,1.53125 4.5625,1.53125 3.28732,-1e-5 3.76787,0.26338 6.0625,-2.03125 1.12311,-1.12311 2.49038,2.14603 4.03125,2.53125 2.58252,0.6456 -1.34077,-5.18155 -2.53125,-7.5625 -1.38579,-2.77165 -1.48624,-4.31939 -5.0625,-2.53125 -3.41619,1.70807 -3.98491,0.93856 -2.5,-2.03125 0.84854,-1.69713 -1.59379,-3.37493 0,-6.5625 0.88121,-1.76246 3.61348,5.67107 5.03125,0 0.43381,-1.73523 1.34022,-3.37825 2.1875,-3.4375 0.50838,-0.0356 0.98913,0.51902 1.34375,1.9375 0.3635,1.45391 -2.69953,3.06489 -2,6.5625 0.45233,2.2616 5.50232,4.48226 7.0625,6.5625 1.44742,1.92984 1.14823,4.79646 2.03125,6.5625 1.26715,2.53428 2.56193,-0.5 6.0625,-0.5 2.90079,-2e-5 4.4786,-1.4786 5.03125,-2.03125 1.9634,-1.96341 -2,5.31711 -2,8.09375 1e-5,2.37693 -2.86536,4.33411 -4.0625,5.53125 -1.37303,1.37303 -1,5.25356 -1,7.59375 0,2.50349 1,4.55295 1,6.0625 2e-5,2.61688 1.03125,5.02238 1.03125,8.0625 1e-5,2.2099 3.53125,5.65777 3.53125,9.09375 2e-5,2.52733 0.38244,4.9881 2.53125,6.0625 2.97582,1.48787 5.84352,0.21898 7.0625,-1 0.57877,-0.57877 0.068,-1.96651 0.5211,-2.19765 l 1.01015,-326.48985 z M -660.58,31.2595 c 0.7058,-0.01783 1.5293,0.10106 2.5,0.34375 1.4675,0.366871 4.4206,4.70605 5.5625,5.5625 1.1163,0.837181 5.1458,1.5 7.0625,1.5 3.4291,10e-7 5.3109,-0.97514 6.0625,2.03125 0.1833,0.733001 -1.5628,5.24846 -1,8.0625 0.454,2.269671 -2.57065,4.14122 -3.53125,6.0625 -1.3986,2.79725 -5.1933,2.40041 -6.5625,1.03125 -1.9968,-1.996799 -2.2382,-4.81926 -4.5625,-6.5625 -3.3973,-2.547969 -4.3895,-1.21656 -6.0625,-4.5625 -1.2713,-2.542569 -2.42585,-4.45719 -4.03125,-6.0625 -0.8903,-0.890389 -0.2899,-3.08171 0,-4.53125 1.3363,-1.664839 2.4453,-2.82151 4.5625,-2.875 z m 18.3125,82.375 c 1.1426,-0.11307 1.0208,0.27081 2.375,0.8125 2.4099,0.96395 4.2852,1.92202 5.0625,5.03125 0.7111,2.84418 0.99865,4.54617 4.03125,6.0625 3.0679,1.53399 4.4649,0.93367 6.5625,3.03125 1.2127,1.21272 2.31735,5.00902 4.53125,5.5625 2.07631,0.51909 5.49085,2.05142 2.53125,3.53125 -1.9634,0.98171 -6.5625,2.69513 -6.5625,0.5 0,-1.97038 -1.58415,-6.47834 -4.53125,-3.53125 -1.77189,1.77197 -3.85125,3.6525 -7.09375,2.03125 -0.6123,-0.30615 -6.8506,-1.10745 -7.0625,-1.53125 -0.7171,-1.43413 -1.99635,-3.99272 -3.03125,-6.0625 -0.4177,-0.83547 -1.799,-6.76344 -0.5,-8.0625 2.0931,-2.09308 1.63835,-4.78881 2.03125,-7.09375 0.7633,-0.15263 1.27545,-0.24355 1.65625,-0.28125 z m 219.71875,37.125 c 0.75031,-0.0295 0.72155,1.9403 1.84375,3.0625 1.41403,1.41407 2.7018,2.20183 4.5625,4.0625 0.49683,0.49688 4.53125,3.16784 4.53125,3.53125 10e-6,2.82733 -1.8808,5.18172 0,7.0625 0.061,0.0611 4.1151,4.32105 4.0625,4.53125 -1.13719,4.54897 0.6923,3.44713 2,6.0625 1.40741,2.81489 0.7754,1.01179 -1,4.5625 -0.69369,1.3875 -2.28705,4.46733 -4.03125,4.03125 -3.36857,-0.84211 -2.6127,0.80631 -5.0625,2.03125 -0.88717,0.44359 -4.65255,0.95398 -4.03125,-1.53125 0.82991,-3.31946 -1.33305,-1.93216 -3.53125,-3.03125 -2.41137,-1.20567 -2.87995,-1.83386 -1.53125,-4.53125 1.04601,-2.09196 1.4301,-4.13239 -1,-6.5625 -0.33649,-0.33653 -2.4449,-3.11763 -0.5,-5.0625 2.20141,-2.20137 6.40125,-1.66118 4.03125,-4.03125 -1.49167,-1.49165 -0.92175,-5.56251 -3.03125,-5.5625 -1.72829,2e-5 -5.2156,0.48297 -6.5625,-1 1.59591,-3.98967 0.4481,-1.97933 2,-3.53125 1.00231,-1.00224 4.548,-1.17864 5.5625,-2.53125 0.82961,-1.10611 1.3465,-1.54907 1.6875,-1.5625 z m -109.25,39.4375 c 2.86803,0.57361 3.23555,0.30372 4.53125,2.03125 2.01062,2.68089 3.8069,1.90345 7.0625,3.53125 2.27112,1.13557 2.9329,1.7824 6.0625,1 4.88802,-1.222 -1.85225,1.97784 2.03125,3.53125 1.06073,0.42429 5.1848,1.65355 6.0625,2.53125 2.00413,2.00407 3.7341,2.82843 1.5,5.0625 -2.24287,2.24294 -2.97685,-0.77722 -5.53125,0.5 -1.99258,0.9963 -4.7915,2.58419 -5.5625,-0.5 -0.60438,-2.41735 -4.28165,-4.03281 -4.03125,-3.03125 0.48493,1.93961 -0.6658,4.17254 -3.5625,2 -1.83857,-1.37896 -4.03135,-3.30731 -4.03125,-6.0625 2e-5,-1.78966 -4.64925,-2.63372 -3.53125,-4.03125 1.17593,-1.46981 2.6836,-4.72071 1,-5.5625 -0.67337,-0.33669 -1.3266,-0.66328 -2,-1 z m -22.75,28.78125 c 1e-5,1.88229 2.71475,4.72071 1.03125,5.5625 -1.8534,0.92664 -2.8026,0.62997 -5.0625,-0.5 -4.7725,-2.38626 3.72595,-3.85271 4.03125,-5.0625 z m 44.46875,6.5625 c 1.99374,0.49841 6.51566,2.0781 5.0625,3.53125 -2.54944,2.54944 -0.59892,1.81522 0.5,4.5625 2.56753,6.41877 -0.73164,0.13178 -2.53125,2.53125 -0.1785,0.23801 -6.16036,4.19573 -4.5625,1 1.56551,-3.13101 -0.29599,-3.34728 0,-4.53125 0.40578,-1.62308 2.27964,-6.11676 1.53125,-7.09375 z m 0.5,15.65625 c 1.02672,0.82141 1.85515,1.9432 3.03125,2.53125 1.99413,0.997 2.1532,5.18443 0.5,3.53125 -2.31407,-2.31417 -4.01405,-3.37873 -3.53125,-6.0625 z m 260.625,37.875 c 0.56378,0.33823 4.31567,1.69294 2.53125,3.03125 -2.97923,2.23441 -3.41155,0.84349 -2.53125,-3.03125 z m -69.71875,5.5625 c 1.13461,-2e-5 7.69125,2.93367 7.09375,3.53125 -1.13847,1.13841 -3.5091,2.01787 -5.5625,2.53125 -4.92977,1.23242 -1.02365,-4.06317 -1.53125,-6.0625 z m 15.15625,8.09375 c 2.64844,1.05937 6.27971,2.09685 5.5625,3.53125 -1.08587,2.17174 -6.45935,6.06251 -4.03125,6.0625 3.51368,-2e-5 5.49323,-0.39269 4.03125,2.53125 -1.31424,2.62848 -2.60278,2.34858 -3.53125,6.0625 -0.22839,0.91376 -1.0904,2.47331 -1.8125,3.75 -0.0459,0.68526 -0.32025,1.41396 -0.71875,1.8125 -0.77247,0.77241 -0.11875,-0.33185 0.71875,-1.8125 0.0501,-0.74766 -0.16885,-1.475 -0.71875,-1.75 -2.23147,-1.11576 -4.03125,-1.82493 -4.03125,-5.53125 10e-6,-3.51705 2.1266,-4.34063 0.5,-7.59375 -2.38419,-4.76846 0.13775,-6.33394 4.03125,-7.0625 z"
       id="rect3194"
       sodipodi:nodetypes="ccccccsssssssssssssssssssssssssssssssssssssssssssssssssssssssssssssssssssssssssssssssssssssssssssssssssssssssssssssssssssssssssssssssssssssssssssssssccsssssscssssssssssssssssssssssssssssssssssssssssccccsssssssssccccsssssssssssccccssssssssssssssscsscccsssssssssssscccscccsssscccsccccccscccssscscssscc"
       inkscape:connector-curvature="0" />
    <path
       style="fill:none;stroke:#bfcde9;stroke-width:5;stroke-linecap:butt;stroke-linejoin:round;stroke-miterlimit:4;stroke-opacity:1;stroke-dasharray:none"
       d="m -666.17477,18.99365 c 3.55045,-3.55045 5.70003,0.324643 9.09137,2.020303 6.20954,3.10478 5.52395,5.18501 10.10152,4.04061 0.0619,-0.01547 -3.47437,9.31334 5.05076,5.05077 5.00787,-2.50393 4.7497,0.70908 8.08122,4.04061 2.39338,2.39337 7.39469,4.70749 10.10153,6.06091 7.82969,3.91485 6.78114,-1.59 11.11168,7.07107 2.25889,4.51778 3.46391,7.2878 7.07107,9.09137 2.00896,1.00449 8.63788,3.30879 12.12182,5.05077 6.47864,3.23932 7.72109,1.30003 11.11168,8.08122 2.44574,4.891477 1.69258,7.917347 8.08122,11.111667 3.09037,1.54519 4.91069,8.81124 6.06092,11.11168 1.97279,3.9456 3.8251,8.87587 6.06091,11.11168 3.44419,3.44419 4.7768,4.96507 6.06092,10.10153 0.57945,2.31781 0,9.01106 0,14.14213 0,3.90178 -3.56133,9.86189 -6.06092,11.11168 -5.70289,2.85145 -0.48735,9.61417 1.01015,11.11168 4.09852,4.09852 4.04061,7.65721 4.04061,15.15229 0,6.8438 2.2126,11.71289 7.07107,14.14213 4.34313,2.17157 5.09088,6.14114 7.07107,10.10153 1.59183,3.18366 0,11.49903 0,15.15228 0,6.40831 2.90888,9.79758 5.05076,15.15229 1.55132,3.8783 3.3024,6.6048 5.05076,10.10153 2.02201,4.044 2.31023,10.68136 4.04061,14.14213 3.33376,6.66751 1.71599,12.88262 0,17.1726 -2.27244,5.68111 3.08847,9.62545 6.06092,11.11168 4.68365,2.34182 4.57149,5.68855 10.10153,7.07106 3.38741,0.84686 6.94498,5.93484 9.09137,8.08122 3.42203,3.42204 4.50935,4.94248 10.10152,6.06092 4.94629,0.98926 11.44984,0.0845 15.15229,1.01015 6.24499,1.56125 8.35073,4.7006 15.15229,6.06092 5.61282,1.12256 9.25604,1.17481 12.12183,4.04061 3.84451,3.8445 5.10798,5.05076 12.12183,5.05076 3.31178,0 8.06047,6.30826 11.11168,7.07107 5.84282,1.4607 11.29113,2.57024 17.17259,4.04061 3.943,0.98575 10.44817,4.12727 14.14214,5.05076 5.02209,1.25552 7.86426,3.99722 13.13198,5.05076 4.59843,0.91969 10.17297,3.04832 14.14214,4.04061 5.66294,1.41574 12.62864,2.90463 17.17259,4.04061 6.09113,1.52279 11.04817,2.5883 15.15229,5.05077 4.28089,2.56853 0.31197,6.06091 9.09137,6.06091 5.58412,0 9.72399,2.65292 12.12183,5.05076 1.01504,1.01504 13.25425,0.78818 14.14214,1.01016 4.52374,1.13093 10.11429,3.84369 13.13198,5.05076 4.75317,1.90127 8.45554,2.0203 14.14214,2.0203 5.72419,0 11.44839,0 17.17259,0 4.4812,0 11.59201,3.44723 15.15229,4.04061"
       id="path9356"
       sodipodi:nodetypes="csssssssssssssssssssssssssssssssssssssssssssssc"
       inkscape:connector-curvature="0" />
    <path
       style="fill:none;stroke:#bfcde9;stroke-width:5;stroke-linecap:butt;stroke-linejoin:round;stroke-miterlimit:4;stroke-opacity:1;stroke-dasharray:none"
       d="m -366.15948,145.26272 c 1.63879,2.18505 10.33127,2.83535 15.15229,4.04061 5.18527,1.29631 8.0169,4.00844 12.12183,6.06091 4.33676,2.16838 5.01155,4.0014 8.08122,7.07107 3.53761,3.5376 4.72921,4.40765 7.07107,9.09137 2.99911,5.99821 6.86909,2.82822 5.05076,10.10153 -1.5114,6.04563 -3.03045,6.96506 -3.03045,14.14213 0,3.89153 5.36285,13.75617 7.07106,17.1726 2.39004,4.78007 2.13598,8.19689 5.05077,11.11168 2.74114,2.74114 10.40893,2.67908 13.13198,4.04061 4.09118,2.04558 5.29553,8.2036 9.09137,10.10152 5.07541,2.53771 8.56093,1.91883 10.10153,8.08122 1.02328,4.09314 -9.63245,1.86704 0,9.09137 4.84027,3.63021 8.96379,-0.25516 12.12183,6.06092 2.13698,4.27396 4.33815,7.66615 6.06091,11.11168 2.23334,4.46666 2.90033,6.55054 4.04061,11.11168 0.74737,2.98947 7.12225,6.11209 9.09138,8.08122 4.05599,4.05599 5.42472,4.52631 7.07107,11.11167"
       id="path9360"
       sodipodi:nodetypes="csssssssssssssssss"
       inkscape:connector-curvature="0" />
    <path
       style="fill: none; fill-rule: evenodd; stroke: rgb(191, 205, 233); stroke-width: 5; stroke-linecap: butt; stroke-linejoin: round; stroke-miterlimit: 4; stroke-dasharray: none; stroke-opacity: 1;"
       d="M -535.8651,-13.615501 C -538.20685,-11.273749 -536.68398,-3.4322945 -538.89556,-0.48351655 C -540.95431,2.2614855 -538.22706,12.960503 -537.88541,14.668773 C -536.88209,19.685363 -542.2101,23.034073 -544.95648,25.780453 C -548.89169,29.715663 -551.0418,26.692973 -548.99709,34.871823 C -547.78604,39.716013 -549.60493,41.531823 -547.98693,48.003803 C -546.93863,52.197003 -554.88789,58.105333 -544.95648,58.105333 C -541.37735,58.105333 -544.40386,67.291793 -542.93617,70.227163 C -540.44053,75.218443 -544.04117,70.857933 -541.92602,79.318533 C -541.01296,82.970743 -532.49793,77.971663 -530.81434,81.338843 C -529.16313,84.641253 -527.31601,88.877773 -524.75342,91.440363 C -520.2912,95.902583 -518.97007,91.995483 -522.73312,99.521583 C -524.83052,103.71638 -513.79594,102.47494 -509.60114,104.57234 C -505.74326,106.50128 -510.17004,117.26308 -502.53007,109.62311 C -500.4022,107.49524 -497.85647,112.27641 -495.459,114.67387 C -493.49562,116.63725 -490.07152,113.327 -487.37778,112.65356 C -483.1186,111.58877 -482.94087,120.25304 -480.30671,123.76524 C -476.90018,128.30729 -478.96338,131.1748 -472.22549,127.80585 C -466.23757,124.81189 -466.82984,126.08139 -468.18488,132.85662 C -468.82983,136.08135 -460.23952,137.36834 -458.08336,137.90738 C -455.22084,138.62301 -451.45972,144.53101 -450.00214,145.9886 C -447.2153,148.77543 -441.25517,146.87627 -438.89046,150.02921 C -438.24322,150.89219 -444.12423,155.49354 -436.87015,159.12058 C -429.81876,162.64628 -428.78893,156.4006 -428.78893,167.2018 C -428.78893,172.68276 -422.50617,171.63656 -419.69756,170.23226 C -413.90449,167.33573 -417.54287,163.29558 -411.61634,169.22211 C -408.71861,172.11984 -413.40271,176.41014 -407.57573,179.32363 C -403.94917,181.13691 -402.41791,172.2258 -398.48436,171.24241 C -393.95369,170.10974 -402.0839,174.99848 -395.4539,178.31348 C -389.71852,181.18117 -385.8937,176.89733 -381.31176,180.33379 C -378.15882,182.69849 -373.72518,174.53063 -370.20009,176.29317 C -365.95686,178.41479 -370.77369,169.07871 -362.11887,171.24241 C -358.58545,172.12577 -359.59136,163.03439 -356.05795,162.15104 C -353.36421,161.4776 -350.46024,161.37249 -347.97673,160.13073 C -343.71755,158.00115 -338.09377,160.02145 -333.83459,162.15104 C -331.30071,163.41798 -331.09594,164.02544 -328.78383,165.1815 C -318.61519,170.26582 -321.69489,172.25256 -312.62139,172.25256 C -307.36224,172.25256 -311.15825,176.85034 -303.53002,169.22211 C -298.95232,164.64441 -293.42849,166.63195 -293.42849,173.26272 C -293.42849,178.91975 -281.34758,177.78795 -278.2762,179.32363 C -272.85903,182.03222 -273.81906,187.61312 -268.17468,190.43531 C -261.33226,193.85652 -260.98623,195.9618 -267.16453,197.50638 C -271.51776,198.59469 -273.92061,197.12619 -270.19498,204.57745 C -267.83527,209.29687 -270.76993,216.83902 -271.20514,217.70943 C -272.06107,219.4213 -264.60233,223.84398 -263.12392,226.8008 C -260.50841,232.03181 -256.03299,235.6446 -251.00209,236.90233 C -245.21102,238.35009 -247.97163,241.27771 -247.97163,248.01401 C -247.97163,251.99581 -244.29893,255.24563 -240.90056,256.09523 C -237.69432,256.89678 -234.08613,258.05137 -229.78887,259.12568"
       id="path9358"
       sodipodi:nodetypes="cssssssssssssssssssssssssssssssssssssssssssssssss" />
    <path
       sodipodi:type="arc"
       style="fill:#dd0606;fill-opacity:1;stroke:#ff0000;stroke-width:2;stroke-miterlimit:4;stroke-opacity:1;stroke-dasharray:none"
       id="path5260"
       sodipodi:cx="150.51273"
       sodipodi:cy="289.67502"
       sodipodi:rx="4.0406103"
       sodipodi:ry="4.0406103"
       d="m 154.55334,289.67502 c 0,2.23157 -1.80905,4.04061 -4.04061,4.04061 -2.23157,0 -4.04061,-1.80904 -4.04061,-4.04061 0,-2.23157 1.80904,-4.04061 4.04061,-4.04061 2.23156,0 4.04061,1.80904 4.04061,4.04061 z"
       transform="translate(-693.449,-125.2194)" />
    <path
       sodipodi:type="arc"
       style="fill:#dd0606;fill-opacity:1;stroke:#ff0000;stroke-width:2;stroke-miterlimit:4;stroke-opacity:1;stroke-dasharray:none"
       id="path6231"
       sodipodi:cx="150.51273"
       sodipodi:cy="289.67502"
       sodipodi:rx="4.0406103"
       sodipodi:ry="4.0406103"
       d="m 154.55334,289.67502 c 0,2.23157 -1.80905,4.04061 -4.04061,4.04061 -2.23157,0 -4.04061,-1.80904 -4.04061,-4.04061 0,-2.23157 1.80904,-4.04061 4.04061,-4.04061 2.23156,0 4.04061,1.80904 4.04061,4.04061 z"
       transform="translate(-497.479,84.892)" />
    <path
       sodipodi:type="arc"
       style="fill:#dd0606;fill-opacity:1;stroke:#ff0000;stroke-width:2;stroke-miterlimit:4;stroke-opacity:1;stroke-dasharray:none"
       id="path6233"
       sodipodi:cx="150.51273"
       sodipodi:cy="289.67502"
       sodipodi:rx="4.0406103"
       sodipodi:ry="4.0406103"
       d="m 154.55334,289.67502 c 0,2.23157 -1.80905,4.04061 -4.04061,4.04061 -2.23157,0 -4.04061,-1.80904 -4.04061,-4.04061 0,-2.23157 1.80904,-4.04061 4.04061,-4.04061 2.23156,0 4.04061,1.80904 4.04061,4.04061 z"
       transform="translate(-485.357,75.801)" />
    <path
       sodipodi:type="arc"
       style="fill:#dd0606;fill-opacity:1;stroke:#ff0000;stroke-width:2;stroke-miterlimit:4;stroke-opacity:1;stroke-dasharray:none"
       id="path6235"
       sodipodi:cx="150.51273"
       sodipodi:cy="289.67502"
       sodipodi:rx="4.0406103"
       sodipodi:ry="4.0406103"
       d="m 154.55334,289.67502 c 0,2.23157 -1.80905,4.04061 -4.04061,4.04061 -2.23157,0 -4.04061,-1.80904 -4.04061,-4.04061 0,-2.23157 1.80904,-4.04061 4.04061,-4.04061 2.23156,0 4.04061,1.80904 4.04061,4.04061 z"
       transform="translate(-514.652,36.405)" />
    <path
       sodipodi:type="arc"
       style="fill:#dd0606;fill-opacity:1;stroke:#ff0000;stroke-width:2;stroke-miterlimit:4;stroke-opacity:1;stroke-dasharray:none"
       id="path6237"
       sodipodi:cx="150.51273"
       sodipodi:cy="289.67502"
       sodipodi:rx="4.0406103"
       sodipodi:ry="4.0406103"
       d="m 154.55334,289.67502 c 0,2.23157 -1.80905,4.04061 -4.04061,4.04061 -2.23157,0 -4.04061,-1.80904 -4.04061,-4.04061 0,-2.23157 1.80904,-4.04061 4.04061,-4.04061 2.23156,0 4.04061,1.80904 4.04061,4.04061 z"
       transform="translate(-524.753,19.2324)" />
    <path
       sodipodi:type="arc"
       style="fill:#dd0606;fill-opacity:1;stroke:#ff0000;stroke-width:2;stroke-miterlimit:4;stroke-opacity:1;stroke-dasharray:none"
       id="path6239"
       sodipodi:cx="150.51273"
       sodipodi:cy="289.67502"
       sodipodi:rx="4.0406103"
       sodipodi:ry="4.0406103"
       d="m 154.55334,289.67502 c 0,2.23157 -1.80905,4.04061 -4.04061,4.04061 -2.23157,0 -4.04061,-1.80904 -4.04061,-4.04061 0,-2.23157 1.80904,-4.04061 4.04061,-4.04061 2.23156,0 4.04061,1.80904 4.04061,4.04061 z"
       transform="translate(-541.926,27.3136)" />
    <path
       sodipodi:type="arc"
       style="fill:#dd0606;fill-opacity:1;stroke:#ff0000;stroke-width:2;stroke-miterlimit:4;stroke-opacity:1;stroke-dasharray:none"
       id="path6241"
       sodipodi:cx="150.51273"
       sodipodi:cy="289.67502"
       sodipodi:rx="4.0406103"
       sodipodi:ry="4.0406103"
       d="m 154.55334,289.67502 c 0,2.23157 -1.80905,4.04061 -4.04061,4.04061 -2.23157,0 -4.04061,-1.80904 -4.04061,-4.04061 0,-2.23157 1.80904,-4.04061 4.04061,-4.04061 2.23156,0 4.04061,1.80904 4.04061,4.04061 z"
       transform="translate(-522.733,3.07)" />
    <path
       sodipodi:type="arc"
       style="fill:#dd0606;fill-opacity:1;stroke:#ff0000;stroke-width:2;stroke-miterlimit:4;stroke-opacity:1;stroke-dasharray:none"
       id="path6243"
       sodipodi:cx="150.51273"
       sodipodi:cy="289.67502"
       sodipodi:rx="4.0406103"
       sodipodi:ry="4.0406103"
       d="m 154.55334,289.67502 c 0,2.23157 -1.80905,4.04061 -4.04061,4.04061 -2.23157,0 -4.04061,-1.80904 -4.04061,-4.04061 0,-2.23157 1.80904,-4.04061 4.04061,-4.04061 2.23156,0 4.04061,1.80904 4.04061,4.04061 z"
       transform="translate(-514.652,-20.16354)" />
    <path
       sodipodi:type="arc"
       style="fill:#dd0606;fill-opacity:1;stroke:#ff0000;stroke-width:2;stroke-miterlimit:4;stroke-opacity:1;stroke-dasharray:none"
       id="path6245"
       sodipodi:cx="150.51273"
       sodipodi:cy="289.67502"
       sodipodi:rx="4.0406103"
       sodipodi:ry="4.0406103"
       d="m 154.55334,289.67502 a 4.0406103,4.0406103 0 1 1 -8.08122,0 4.0406103,4.0406103 0 1 1 8.08122,0 z"
       transform="translate(-483.77576,-19.724773)" />
    <path
       sodipodi:type="arc"
       style="fill:#dd0606;fill-opacity:1;stroke:#ff0000;stroke-width:2;stroke-miterlimit:4;stroke-opacity:1;stroke-dasharray:none"
       id="path6247"
       sodipodi:cx="150.51273"
       sodipodi:cy="289.67502"
       sodipodi:rx="4.0406103"
       sodipodi:ry="4.0406103"
       d="m 154.55334,289.67502 c 0,2.23157 -1.80905,4.04061 -4.04061,4.04061 -2.23157,0 -4.04061,-1.80904 -4.04061,-4.04061 0,-2.23157 1.80904,-4.04061 4.04061,-4.04061 2.23156,0 4.04061,1.80904 4.04061,4.04061 z"
       transform="translate(-442.931,-4.0011)" />
    <path
       sodipodi:type="arc"
       style="fill:#dd0606;fill-opacity:1;stroke:#ff0000;stroke-width:2;stroke-miterlimit:4;stroke-opacity:1;stroke-dasharray:none"
       id="path6251"
       sodipodi:cx="150.51273"
       sodipodi:cy="289.67502"
       sodipodi:rx="4.0406103"
       sodipodi:ry="4.0406103"
       d="m 154.55334,289.67502 c 0,2.23157 -1.80905,4.04061 -4.04061,4.04061 -2.23157,0 -4.04061,-1.80904 -4.04061,-4.04061 0,-2.23157 1.80904,-4.04061 4.04061,-4.04061 2.23156,0 4.04061,1.80904 4.04061,4.04061 z"
       transform="translate(-443.941,-18.275866)" />
    <path
       sodipodi:type="arc"
       style="fill:#dd0606;fill-opacity:1;stroke:#ff0000;stroke-width:2;stroke-miterlimit:4;stroke-opacity:1;stroke-dasharray:none"
       id="path6253"
       sodipodi:cx="150.51273"
       sodipodi:cy="289.67502"
       sodipodi:rx="4.0406103"
       sodipodi:ry="4.0406103"
       d="m 154.55334,289.67502 a 4.0406103,4.0406103 0 1 1 -8.08122,0 4.0406103,4.0406103 0 1 1 8.08122,0 z"
       transform="translate(-461.114,-30.438539)" />
    <path
       sodipodi:type="arc"
       style="fill:#dd0606;fill-opacity:1;stroke:#ff0000;stroke-width:2;stroke-miterlimit:4;stroke-opacity:1;stroke-dasharray:none"
       id="path6255"
       sodipodi:cx="150.51273"
       sodipodi:cy="289.67502"
       sodipodi:rx="4.0406103"
       sodipodi:ry="4.0406103"
       d="m 154.55334,289.67502 c 0,2.23157 -1.80905,4.04061 -4.04061,4.04061 -2.23157,0 -4.04061,-1.80904 -4.04061,-4.04061 0,-2.23157 1.80904,-4.04061 4.04061,-4.04061 2.23156,0 4.04061,1.80904 4.04061,4.04061 z"
       transform="translate(-524.753,-44.4072)" />
    <path
       sodipodi:type="arc"
       style="fill:#dd0606;fill-opacity:1;stroke:#ff0000;stroke-width:2;stroke-miterlimit:4;stroke-opacity:1;stroke-dasharray:none"
       id="path6257"
       sodipodi:cx="150.51273"
       sodipodi:cy="289.67502"
       sodipodi:rx="4.0406103"
       sodipodi:ry="4.0406103"
       d="m 154.55334,289.67502 c 0,2.23157 -1.80905,4.04061 -4.04061,4.04061 -2.23157,0 -4.04061,-1.80904 -4.04061,-4.04061 0,-2.23157 1.80904,-4.04061 4.04061,-4.04061 2.23156,0 4.04061,1.80904 4.04061,4.04061 z"
       transform="translate(-556.068,-37.33613)" />
    <path
       sodipodi:type="arc"
       style="fill:#dd0606;fill-opacity:1;stroke:#ff0000;stroke-width:2;stroke-miterlimit:4;stroke-opacity:1;stroke-dasharray:none"
       id="path6261"
       sodipodi:cx="150.51273"
       sodipodi:cy="289.67502"
       sodipodi:rx="4.0406103"
       sodipodi:ry="4.0406103"
       d="m 154.55334,289.67502 c 0,2.23157 -1.80905,4.04061 -4.04061,4.04061 -2.23157,0 -4.04061,-1.80904 -4.04061,-4.04061 0,-2.23157 1.80904,-4.04061 4.04061,-4.04061 2.23156,0 4.04061,1.80904 4.04061,4.04061 z"
       transform="translate(-554.048,-60.5696)" />
    <path
       sodipodi:type="arc"
       style="fill:#dd0606;fill-opacity:1;stroke:#ff0000;stroke-width:2;stroke-miterlimit:4;stroke-opacity:1;stroke-dasharray:none"
       id="path6271"
       sodipodi:cx="150.51273"
       sodipodi:cy="289.67502"
       sodipodi:rx="4.0406103"
       sodipodi:ry="4.0406103"
       d="m 154.55334,289.67502 c 0,2.23157 -1.80905,4.04061 -4.04061,4.04061 -2.23157,0 -4.04061,-1.80904 -4.04061,-4.04061 0,-2.23157 1.80904,-4.04061 4.04061,-4.04061 2.23156,0 4.04061,1.80904 4.04061,4.04061 z"
       transform="translate(-491.418,-252.499)" />
    <path
       sodipodi:type="arc"
       style="fill:#dd0606;fill-opacity:1;stroke:#ff0000;stroke-width:2;stroke-miterlimit:4;stroke-opacity:1;stroke-dasharray:none"
       id="path6273"
       sodipodi:cx="150.51273"
       sodipodi:cy="289.67502"
       sodipodi:rx="4.0406103"
       sodipodi:ry="4.0406103"
       d="m 154.55334,289.67502 c 0,2.23157 -1.80905,4.04061 -4.04061,4.04061 -2.23157,0 -4.04061,-1.80904 -4.04061,-4.04061 0,-2.23157 1.80904,-4.04061 4.04061,-4.04061 2.23156,0 4.04061,1.80904 4.04061,4.04061 z"
       transform="translate(-595.464,-61.5798)" />
    <path
       sodipodi:type="arc"
       style="fill:#dd0606;fill-opacity:1;stroke:#ff0000;stroke-width:2;stroke-miterlimit:4;stroke-opacity:1;stroke-dasharray:none"
       id="path6275"
       sodipodi:cx="150.51273"
       sodipodi:cy="289.67502"
       sodipodi:rx="4.0406103"
       sodipodi:ry="4.0406103"
       d="m 154.55334,289.67502 c 0,2.23157 -1.80905,4.04061 -4.04061,4.04061 -2.23157,0 -4.04061,-1.80904 -4.04061,-4.04061 0,-2.23157 1.80904,-4.04061 4.04061,-4.04061 2.23156,0 4.04061,1.80904 4.04061,4.04061 z"
       transform="translate(-596.474,-76.7321)" />
    <path
       sodipodi:type="arc"
       style="fill:#dd0606;fill-opacity:1;stroke:#ff0000;stroke-width:2;stroke-miterlimit:4;stroke-opacity:1;stroke-dasharray:none"
       id="path6277"
       sodipodi:cx="150.51273"
       sodipodi:cy="289.67502"
       sodipodi:rx="4.0406103"
       sodipodi:ry="4.0406103"
       d="m 154.55334,289.67502 c 0,2.23157 -1.80905,4.04061 -4.04061,4.04061 -2.23157,0 -4.04061,-1.80904 -4.04061,-4.04061 0,-2.23157 1.80904,-4.04061 4.04061,-4.04061 2.23156,0 4.04061,1.80904 4.04061,4.04061 z"
       transform="translate(-603.545,-92.8945)" />
    <path
       sodipodi:type="arc"
       style="fill:#dd0606;fill-opacity:1;stroke:#ff0000;stroke-width:2;stroke-miterlimit:4;stroke-opacity:1;stroke-dasharray:none"
       id="path6279"
       sodipodi:cx="150.51273"
       sodipodi:cy="289.67502"
       sodipodi:rx="4.0406103"
       sodipodi:ry="4.0406103"
       d="m 154.55334,289.67502 c 0,2.23157 -1.80905,4.04061 -4.04061,4.04061 -2.23157,0 -4.04061,-1.80904 -4.04061,-4.04061 0,-2.23157 1.80904,-4.04061 4.04061,-4.04061 2.23156,0 4.04061,1.80904 4.04061,4.04061 z"
       transform="translate(-636.88,-109.057)" />
    <path
       sodipodi:type="arc"
       style="fill:#dd0606;fill-opacity:1;stroke:#ff0000;stroke-width:2;stroke-miterlimit:4;stroke-opacity:1;stroke-dasharray:none"
       id="path6281"
       sodipodi:cx="150.51273"
       sodipodi:cy="289.67502"
       sodipodi:rx="4.0406103"
       sodipodi:ry="4.0406103"
       d="m 154.55334,289.67502 c 0,2.23157 -1.80905,4.04061 -4.04061,4.04061 -2.23157,0 -4.04061,-1.80904 -4.04061,-4.04061 0,-2.23157 1.80904,-4.04061 4.04061,-4.04061 2.23156,0 4.04061,1.80904 4.04061,4.04061 z"
       transform="translate(-676.276,-104.0062)" />
    <path
       sodipodi:type="arc"
       style="fill:#dd0606;fill-opacity:1;stroke:#ff0000;stroke-width:2;stroke-miterlimit:4;stroke-opacity:1;stroke-dasharray:none"
       id="path6283"
       sodipodi:cx="150.51273"
       sodipodi:cy="289.67502"
       sodipodi:rx="4.0406103"
       sodipodi:ry="4.0406103"
       d="m 154.55334,289.67502 c 0,2.23157 -1.80905,4.04061 -4.04061,4.04061 -2.23157,0 -4.04061,-1.80904 -4.04061,-4.04061 0,-2.23157 1.80904,-4.04061 4.04061,-4.04061 2.23156,0 4.04061,1.80904 4.04061,4.04061 z"
       transform="translate(-659.104,-147.443)" />
    <path
       sodipodi:type="arc"
       style="fill:#dd0606;fill-opacity:1;stroke:#ff0000;stroke-width:2;stroke-miterlimit:4;stroke-opacity:1;stroke-dasharray:none"
       id="path6285"
       sodipodi:cx="150.51273"
       sodipodi:cy="289.67502"
       sodipodi:rx="4.0406103"
       sodipodi:ry="4.0406103"
       d="m 154.55334,289.67502 c 0,2.23157 -1.80905,4.04061 -4.04061,4.04061 -2.23157,0 -4.04061,-1.80904 -4.04061,-4.04061 0,-2.23157 1.80904,-4.04061 4.04061,-4.04061 2.23156,0 4.04061,1.80904 4.04061,4.04061 z"
       transform="translate(-691.429,-140.372)" />
    <path
       sodipodi:type="arc"
       style="fill:#dd0606;fill-opacity:1;stroke:#ff0000;stroke-width:2;stroke-miterlimit:4;stroke-opacity:1;stroke-dasharray:none"
       id="path6287"
       sodipodi:cx="150.51273"
       sodipodi:cy="289.67502"
       sodipodi:rx="4.0406103"
       sodipodi:ry="4.0406103"
       d="m 154.55334,289.67502 c 0,2.23157 -1.80905,4.04061 -4.04061,4.04061 -2.23157,0 -4.04061,-1.80904 -4.04061,-4.04061 0,-2.23157 1.80904,-4.04061 4.04061,-4.04061 2.23156,0 4.04061,1.80904 4.04061,4.04061 z"
       transform="translate(-714.662,-221.184)" />
    <path
       sodipodi:type="arc"
       style="fill:#dd0606;fill-opacity:1;stroke:#ff0000;stroke-width:2;stroke-miterlimit:4;stroke-opacity:1;stroke-dasharray:none"
       id="path6289"
       sodipodi:cx="150.51273"
       sodipodi:cy="289.67502"
       sodipodi:rx="4.0406103"
       sodipodi:ry="4.0406103"
       d="m 154.55334,289.67502 c 0,2.23157 -1.80905,4.04061 -4.04061,4.04061 -2.23157,0 -4.04061,-1.80904 -4.04061,-4.04061 0,-2.23157 1.80904,-4.04061 4.04061,-4.04061 2.23156,0 4.04061,1.80904 4.04061,4.04061 z"
       transform="translate(-779.312,-245.428)" />
    <path
       sodipodi:type="arc"
       style="fill:#dd0606;fill-opacity:1;stroke:#ff0000;stroke-width:2;stroke-miterlimit:4;stroke-opacity:1;stroke-dasharray:none"
       id="path6291"
       sodipodi:cx="150.51273"
       sodipodi:cy="289.67502"
       sodipodi:rx="4.0406103"
       sodipodi:ry="4.0406103"
       d="m 154.55334,289.67502 c 0,2.23157 -1.80905,4.04061 -4.04061,4.04061 -2.23157,0 -4.04061,-1.80904 -4.04061,-4.04061 0,-2.23157 1.80904,-4.04061 4.04061,-4.04061 2.23156,0 4.04061,1.80904 4.04061,4.04061 z"
       transform="translate(-555.058,-139.362)" />
    <path
       sodipodi:type="arc"
       style="fill:#dd0606;fill-opacity:1;stroke:#ff0000;stroke-width:2;stroke-miterlimit:4;stroke-opacity:1;stroke-dasharray:none"
       id="path6293"
       sodipodi:cx="150.51273"
       sodipodi:cy="289.67502"
       sodipodi:rx="4.0406103"
       sodipodi:ry="4.0406103"
       d="m 154.55334,289.67502 c 0,2.23157 -1.80905,4.04061 -4.04061,4.04061 -2.23157,0 -4.04061,-1.80904 -4.04061,-4.04061 0,-2.23157 1.80904,-4.04061 4.04061,-4.04061 2.23156,0 4.04061,1.80904 4.04061,4.04061 z"
       transform="translate(-659.104,-171.686)" />
    <path
       sodipodi:type="arc"
       style="fill:#dd0606;fill-opacity:1;stroke:#ff0000;stroke-width:2;stroke-miterlimit:4;stroke-opacity:1;stroke-dasharray:none"
       id="path6295"
       sodipodi:cx="150.51273"
       sodipodi:cy="289.67502"
       sodipodi:rx="4.0406103"
       sodipodi:ry="4.0406103"
       d="m 154.55334,289.67502 c 0,2.23157 -1.80905,4.04061 -4.04061,4.04061 -2.23157,0 -4.04061,-1.80904 -4.04061,-4.04061 0,-2.23157 1.80904,-4.04061 4.04061,-4.04061 2.23156,0 4.04061,1.80904 4.04061,4.04061 z"
       transform="translate(-644.962,-275.732)" />
    <path
       sodipodi:type="arc"
       style="fill:#dd0606;fill-opacity:1;stroke:#ff0000;stroke-width:2;stroke-miterlimit:4;stroke-opacity:1;stroke-dasharray:none"
       id="path6297"
       sodipodi:cx="150.51273"
       sodipodi:cy="289.67502"
       sodipodi:rx="4.0406103"
       sodipodi:ry="4.0406103"
       d="m 154.55334,289.67502 c 0,2.23157 -1.80905,4.04061 -4.04061,4.04061 -2.23157,0 -4.04061,-1.80904 -4.04061,-4.04061 0,-2.23157 1.80904,-4.04061 4.04061,-4.04061 2.23156,0 4.04061,1.80904 4.04061,4.04061 z"
       transform="translate(-674.256,-187.849)" />
    <path
       sodipodi:type="arc"
       style="fill:#dd0606;fill-opacity:1;stroke:#ff0000;stroke-width:2;stroke-miterlimit:4;stroke-opacity:1;stroke-dasharray:none"
       id="path6299"
       sodipodi:cx="150.51273"
       sodipodi:cy="289.67502"
       sodipodi:rx="4.0406103"
       sodipodi:ry="4.0406103"
       d="m 154.55334,289.67502 c 0,2.23157 -1.80905,4.04061 -4.04061,4.04061 -2.23157,0 -4.04061,-1.80904 -4.04061,-4.04061 0,-2.23157 1.80904,-4.04061 4.04061,-4.04061 2.23156,0 4.04061,1.80904 4.04061,4.04061 z"
       transform="translate(-674.256,-213.103)" />
    <path
       sodipodi:type="arc"
       style="fill:#dd0606;fill-opacity:1;stroke:#ff0000;stroke-width:2;stroke-miterlimit:4;stroke-opacity:1;stroke-dasharray:none"
       id="path6303"
       sodipodi:cx="150.51273"
       sodipodi:cy="289.67502"
       sodipodi:rx="4.0406103"
       sodipodi:ry="4.0406103"
       d="m 154.55334,289.67502 c 0,2.23157 -1.80905,4.04061 -4.04061,4.04061 -2.23157,0 -4.04061,-1.80904 -4.04061,-4.04061 0,-2.23157 1.80904,-4.04061 4.04061,-4.04061 2.23156,0 4.04061,1.80904 4.04061,4.04061 z"
       transform="translate(-667.185,-259.57)" />
    <text
       xml:space="preserve"
       style="font-size:12px;font-style:normal;font-weight:normal;fill:#000000;fill-opacity:1;stroke:none;font-family:Bitstream Vera Sans"
       x="-334.31403"
       y="40.910934"
       id="text6325"><tspan
         sodipodi:role="line"
         id="tspan6327"
         x="-334.31403"
         y="40.910934"
         style="-inkscape-font-specification:Arial;font-family:Arial;font-weight:normal;font-style:normal;font-stretch:normal;font-variant:normal">Der</tspan></text>
    <text
       xml:space="preserve"
       style="font-size:12px;font-style:normal;font-weight:normal;fill:#000000;fill-opacity:1;stroke:none;font-family:Bitstream Vera Sans"
       x="-286.66046"
       y="290.02026"
       id="text6329"><tspan
         sodipodi:role="line"
         id="tspan6331"
         x="-286.66046"
         y="290.02026"
         style="font-style:normal;font-variant:normal;font-weight:normal;font-stretch:normal;font-family:Arial;-inkscape-font-specification:Arial">Nina</tspan></text>
    <text
       xml:space="preserve"
       style="font-size:12px;font-style:normal;font-weight:normal;fill:#000000;fill-opacity:1;stroke:none;font-family:Bitstream Vera Sans"
       x="-304.61334"
       y="263.3689"
       id="text6337"><tspan
         sodipodi:role="line"
         id="tspan6339"
         x="-304.61334"
         y="263.3689"
         style="font-style:normal;font-variant:normal;font-weight:normal;font-stretch:normal;font-family:Arial;-inkscape-font-specification:Arial">Lagash</tspan></text>
    <text
       xml:space="preserve"
       style="font-size:12px;font-style:normal;font-weight:normal;fill:#000000;fill-opacity:1;stroke:none;font-family:Bitstream Vera Sans"
       x="-358.42557"
       y="330.121"
       id="text6341"><tspan
         sodipodi:role="line"
         id="tspan6343"
         x="-358.42557"
         y="330.121"
         style="-inkscape-font-specification:Arial;font-family:Arial;font-weight:normal;font-style:normal;font-stretch:normal;font-variant:normal">Larsa</tspan></text>
    <text
       xml:space="preserve"
       style="font-size:12px;font-style:normal;font-weight:normal;fill:#000000;fill-opacity:1;stroke:none;font-family:Bitstream Vera Sans"
       x="-329.09027"
       y="369.38351"
       id="text6345"><tspan
         sodipodi:role="line"
         id="tspan6347"
         x="-329.09027"
         y="369.38351"
         style="-inkscape-font-specification:Arial;font-family:Arial;font-weight:normal;font-style:normal;font-stretch:normal;font-variant:normal">Ur</tspan></text>
    <text
       xml:space="preserve"
       style="font-size:12px;font-style:normal;font-weight:normal;fill:#000000;fill-opacity:1;stroke:none;font-family:Bitstream Vera Sans"
       x="-380.65918"
       y="379.17926"
       id="text6349"><tspan
         sodipodi:role="line"
         id="tspan6351"
         x="-380.65918"
         y="379.17926"
         style="-inkscape-font-specification:Arial;font-family:Arial;font-weight:normal;font-style:normal;font-stretch:normal;font-variant:normal">Eridu</tspan></text>
    <text
       xml:space="preserve"
       style="font-size:12px;font-style:normal;font-weight:normal;fill:#000000;fill-opacity:1;stroke:none;font-family:Bitstream Vera Sans"
       x="-368.75125"
       y="312.81549"
       id="text6353"><tspan
         sodipodi:role="line"
         id="tspan6355"
         x="-368.75125"
         y="312.81549"
         style="-inkscape-font-specification:Arial;font-family:Arial;font-weight:normal;font-style:normal;font-stretch:normal;font-variant:normal">Kutallu</tspan></text>
    <text
       xml:space="preserve"
       style="font-size:12px;font-style:normal;font-weight:normal;fill:#000000;fill-opacity:1;stroke:none;font-family:Bitstream Vera Sans"
       x="-488.12305"
       y="16.667231"
       id="text6357"><tspan
         sodipodi:role="line"
         id="tspan6359"
         x="-488.12305"
         y="16.667231"
         style="-inkscape-font-specification:Arial;font-family:Arial;font-weight:normal;font-style:normal;font-stretch:normal;font-variant:normal">Eshnunna</tspan></text>
    <text
       xml:space="preserve"
       style="font-size:12px;font-style:normal;font-weight:normal;fill:#000000;fill-opacity:1;stroke:none;font-family:Bitstream Vera Sans"
       x="-510.78479"
       y="34.013309"
       id="text6361"><tspan
         sodipodi:role="line"
         id="tspan6363"
         x="-510.78479"
         y="34.013309"
         style="-inkscape-font-specification:Arial;font-family:Arial;font-weight:normal;font-style:normal;font-stretch:normal;font-variant:normal">Tutub</tspan></text>
    <text
       xml:space="preserve"
       style="font-size:12px;font-style:normal;font-weight:normal;fill:#000000;fill-opacity:1;stroke:none;font-family:Bitstream Vera Sans"
       x="-518.12079"
       y="80.306732"
       id="text6365"><tspan
         sodipodi:role="line"
         id="tspan6367"
         x="-518.12079"
         y="80.306732"
         style="-inkscape-font-specification:Arial;font-family:Arial;font-weight:normal;font-style:normal;font-stretch:normal;font-variant:normal">Akshak</tspan></text>
    <text
       xml:space="preserve"
       style="font-size:12px;font-style:normal;font-weight:normal;fill:#000000;fill-opacity:1;stroke:none;font-family:Bitstream Vera Sans"
       x="-623.35059"
       y="48.155415"
       id="text6369"><tspan
         sodipodi:role="line"
         id="tspan6371"
         x="-623.35059"
         y="48.155415"
         style="-inkscape-font-specification:Arial;font-family:Arial;font-weight:normal;font-style:normal;font-stretch:normal;font-variant:normal">Rapiqum</tspan></text>
    <text
       xml:space="preserve"
       style="font-size:12px;font-style:normal;font-weight:normal;fill:#000000;fill-opacity:1;stroke:none;font-family:Bitstream Vera Sans"
       x="-605.48444"
       y="72.093239"
       id="text6373"><tspan
         sodipodi:role="line"
         id="tspan6375"
         x="-605.48444"
         y="72.093239"
         style="-inkscape-font-specification:Arial;font-family:Arial;font-weight:normal;font-style:normal;font-stretch:normal;font-variant:normal">Sippar</tspan></text>
    <text
       xml:space="preserve"
       style="font-size:12px;font-style:normal;font-weight:normal;fill:#000000;fill-opacity:1;stroke:none;font-family:Bitstream Vera Sans"
       x="-589.88306"
       y="153.50719"
       id="text6377"><tspan
         sodipodi:role="line"
         id="tspan6379"
         x="-589.88306"
         y="153.50719"
         style="-inkscape-font-specification:Arial;font-family:Arial;font-weight:normal;font-style:normal;font-stretch:normal;font-variant:normal">Babylon</tspan></text>
    <text
       xml:space="preserve"
       style="font-size:12px;font-style:normal;font-weight:normal;fill:#000000;fill-opacity:1;stroke:none;font-family:Bitstream Vera Sans"
       x="-502.57129"
       y="145.79294"
       id="text6381"><tspan
         sodipodi:role="line"
         id="tspan6383"
         x="-502.57129"
         y="145.79294"
         style="-inkscape-font-specification:Arial;font-family:Arial;font-weight:normal;font-style:normal;font-stretch:normal;font-variant:normal">Kish</tspan></text>
    <text
       xml:space="preserve"
       style="font-size:12px;font-style:normal;font-weight:normal;fill:#000000;fill-opacity:1;stroke:none;font-family:Bitstream Vera Sans"
       x="-518.16205"
       y="105.60102"
       id="text6385"><tspan
         sodipodi:role="line"
         id="tspan6387"
         x="-518.16205"
         y="105.60102"
         style="-inkscape-font-specification:Arial;font-family:Arial;font-weight:normal;font-style:normal;font-stretch:normal;font-variant:normal">Kutha</tspan></text>
    <text
       xml:space="preserve"
       style="font-size:12px;font-style:normal;font-weight:normal;fill:#000000;fill-opacity:1;stroke:none;font-family:Bitstream Vera Sans"
       x="-503.01004"
       y="121.72273"
       id="text6389"><tspan
         sodipodi:role="line"
         id="tspan6391"
         x="-503.01004"
         y="121.72273"
         style="-inkscape-font-specification:Corbel;font-family:Corbel;font-weight:normal;font-style:normal;font-stretch:normal;font-variant:normal"><tspan
   style="-inkscape-font-specification:Arial;font-family:Arial;font-weight:normal;font-style:normal;font-stretch:normal;font-variant:normal"
   id="tspan3110">Kid</tspan>-<tspan
   style="-inkscape-font-specification:Arial;font-family:Arial;font-weight:normal;font-style:normal;font-stretch:normal;font-variant:normal"
   id="tspan3108">nun</tspan></tspan></text>
    <text
       xml:space="preserve"
       style="font-size:12px;font-style:normal;font-weight:normal;fill:#000000;fill-opacity:1;stroke:none;font-family:Bitstream Vera Sans"
       x="-480.4798"
       y="184.39302"
       id="text6393"><tspan
         sodipodi:role="line"
         id="tspan6395"
         x="-480.4798"
         y="184.39302"
         style="-inkscape-font-specification:Arial;font-family:Arial;font-weight:normal;font-style:normal;font-stretch:normal;font-variant:normal">Marad</tspan></text>
    <text
       xml:space="preserve"
       style="font-size:12px;font-style:normal;font-weight:normal;fill:#000000;fill-opacity:1;stroke:none;font-family:Bitstream Vera Sans"
       x="-446.74731"
       y="200.68851"
       id="text6397"><tspan
         sodipodi:role="line"
         id="tspan6399"
         x="-446.74731"
         y="200.68851"
         style="font-style:normal;font-variant:normal;font-weight:normal;font-stretch:normal;font-family:Arial;-inkscape-font-specification:Arial">Nippur</tspan></text>
    <text
       xml:space="preserve"
       style="font-size:12px;font-style:normal;font-weight:normal;fill:#000000;fill-opacity:1;stroke:none;font-family:Bitstream Vera Sans"
       x="-596.3924"
       y="168.36351"
       id="text6401"><tspan
         sodipodi:role="line"
         id="tspan6403"
         x="-596.3924"
         y="168.36351"
         style="-inkscape-font-specification:Arial;font-family:Arial;font-weight:normal;font-style:normal;font-stretch:normal;font-variant:normal">Barsippa</tspan></text>
    <text
       xml:space="preserve"
       style="font-size:12px;font-style:normal;font-weight:normal;fill:#000000;fill-opacity:1;stroke:none;font-family:Bitstream Vera Sans"
       x="-561.82269"
       y="189.7196"
       id="text6405"><tspan
         sodipodi:role="line"
         id="tspan6407"
         x="-561.82269"
         y="189.7196"
         style="font-style:normal;font-variant:normal;font-weight:normal;font-stretch:normal;font-family:Arial;-inkscape-font-specification:Arial">Bilbat</tspan></text>
    <text
       xml:space="preserve"
       style="font-size:12px;font-style:normal;font-weight:normal;fill:#000000;fill-opacity:1;stroke:none;font-family:Bitstream Vera Sans"
       x="-469.28717"
       y="232.26848"
       id="text6409"><tspan
         sodipodi:role="line"
         id="tspan6411"
         x="-469.28717"
         y="232.26848"
         style="-inkscape-font-specification:Arial;font-family:Arial;font-weight:normal;font-style:normal;font-stretch:normal;font-variant:normal">Isin</tspan></text>
    <text
       xml:space="preserve"
       style="font-size:12px;font-style:normal;font-weight:normal;fill:#000000;fill-opacity:1;stroke:none;font-family:Bitstream Vera Sans"
       x="-473.85812"
       y="256.51251"
       id="text6413"><tspan
         sodipodi:role="line"
         id="tspan6415"
         x="-473.85812"
         y="256.51251"
         style="-inkscape-font-specification:Arial;font-family:Arial;font-weight:normal;font-style:normal;font-stretch:normal;font-variant:normal">Shurruppak</tspan></text>
    <text
       xml:space="preserve"
       style="font-size:12px;font-style:normal;font-weight:normal;fill:#000000;fill-opacity:1;stroke:none;font-family:Bitstream Vera Sans"
       x="-439.901"
       y="216.81021"
       id="text6417"><tspan
         sodipodi:role="line"
         id="tspan6419"
         x="-439.901"
         y="216.81021"
         style="font-style:normal;font-variant:normal;font-weight:normal;font-stretch:normal;font-family:Arial;-inkscape-font-specification:Arial">Pazurish-Dagan</tspan></text>
    <text
       xml:space="preserve"
       style="font-size:12px;font-style:normal;font-weight:normal;fill:#000000;fill-opacity:1;stroke:none;font-family:Bitstream Vera Sans"
       x="-397.20905"
       y="232.9722"
       id="text6421"><tspan
         sodipodi:role="line"
         id="tspan6423"
         x="-397.20905"
         y="232.9722"
         style="font-style:normal;font-variant:normal;font-weight:normal;font-stretch:normal;font-family:Arial;-inkscape-font-specification:Arial">Kissura</tspan></text>
    <text
       xml:space="preserve"
       style="font-size:12px;font-style:normal;font-weight:normal;fill:#000000;fill-opacity:1;stroke:none;font-family:Bitstream Vera Sans"
       x="-368.52658"
       y="249.26768"
       id="text6425"><tspan
         sodipodi:role="line"
         id="tspan6427"
         x="-368.52658"
         y="249.26768"
         style="-inkscape-font-specification:Arial;font-family:Arial;font-weight:normal;font-style:normal;font-stretch:normal;font-variant:normal">Adab</tspan></text>
    <text
       xml:space="preserve"
       style="font-size:12px;font-style:normal;font-weight:normal;fill:#000000;fill-opacity:1;stroke:none;font-family:Bitstream Vera Sans"
       x="-405.34091"
       y="273.68451"
       id="text6429"><tspan
         sodipodi:role="line"
         id="tspan6431"
         x="-405.34091"
         y="273.68451"
         style="-inkscape-font-specification:Arial;font-family:Arial;font-weight:normal;font-style:normal;font-stretch:normal;font-variant:normal">Umma</tspan></text>
    <text
       xml:space="preserve"
       style="font-size:12px;font-style:normal;font-weight:normal;fill:#000000;fill-opacity:1;stroke:none;font-family:Bitstream Vera Sans"
       x="-327.71259"
       y="274.26633"
       id="text6433"><tspan
         sodipodi:role="line"
         id="tspan6435"
         x="-327.71259"
         y="274.26633"
         style="font-style:normal;font-variant:normal;font-weight:normal;font-stretch:normal;font-family:Arial;-inkscape-font-specification:Arial">Girsu</tspan></text>
    <text
       xml:space="preserve"
       style="font-size:12px;font-style:normal;font-weight:normal;fill:#000000;fill-opacity:1;stroke:none;font-family:Bitstream Vera Sans"
       x="-432.74741"
       y="296.6525"
       id="text6437"><tspan
         sodipodi:role="line"
         id="tspan6439"
         x="-432.74741"
         y="296.6525"
         style="-inkscape-font-specification:Arial;font-family:Arial;font-weight:normal;font-style:normal;font-stretch:normal;font-variant:normal">Bad Tibira</tspan></text>
    <text
       xml:space="preserve"
       style="font-size:12px;font-style:normal;font-weight:normal;fill:#000000;fill-opacity:1;stroke:none;font-family:Bitstream Vera Sans"
       x="-422.68671"
       y="321.02899"
       id="text6441"><tspan
         sodipodi:role="line"
         id="tspan6443"
         x="-422.68671"
         y="321.02899"
         style="-inkscape-font-specification:Arial;font-family:Arial;font-weight:normal;font-style:normal;font-stretch:normal;font-variant:normal">Uruk</tspan></text>
    <text
       xml:space="preserve"
       style="font-size:12px;font-style:normal;font-weight:normal;fill:#000000;fill-opacity:1;stroke:none;font-family:Bitstream Vera Sans"
       x="-398.45917"
       y="153.93295"
       id="text14227"><tspan
         sodipodi:role="line"
         id="tspan14229"
         x="-398.45917"
         y="153.93295"
         style="-inkscape-font-specification:Arial;font-family:Arial;font-weight:normal;font-style:normal;font-stretch:normal;font-variant:normal">Larak</tspan></text>
    <text
       xml:space="preserve"
       style="font-size:14px;font-style:normal;font-weight:normal;fill:#000000;fill-opacity:1;stroke:none;font-family:Bitstream Vera Sans"
       x="-287.86588"
       y="275.36615"
       id="text2483"
       inkscape:transform-center-x="-3.9488118"
       inkscape:transform-center-y="-2.1937843"><tspan
         sodipodi:role="line"
         id="tspan2485"
         x="-287.86588"
         y="275.36615"
         style="font-size:12px;font-style:normal;font-variant:normal;font-weight:normal;font-stretch:normal;font-family:Arial;-inkscape-font-specification:Arial">Urukag</tspan></text>
    <rect
       style="fill:#000000;fill-opacity:1;stroke:#000000;stroke-width:0.28663409;stroke-miterlimit:4;stroke-opacity:1;stroke-dasharray:none;stroke-dashoffset:0"
       id="rect3978"
       width="294.51526"
       height="1.7133659"
       x="-654.84796"
       y="447.02783" />
    <rect
       y="443.95905"
       x="-654.70526"
       height="4.7010722"
       width="73.056313"
       id="rect3980"
       style="fill:#000000;fill-opacity:1;stroke:#000000;stroke-width:0.23647009;stroke-miterlimit:4;stroke-opacity:1;stroke-dasharray:none;stroke-dashoffset:0" />
    <rect
       y="444.02151"
       x="-510.32004"
       height="4.7010722"
       width="73.056313"
       id="rect3980-2"
       style="fill:#000000;fill-opacity:1;stroke:#000000;stroke-width:0.23647009;stroke-miterlimit:4;stroke-opacity:1;stroke-dasharray:none;stroke-dashoffset:0" />
    <rect
       style="fill:#000000;fill-opacity:1;stroke:#000000;stroke-width:0.28613272;stroke-miterlimit:4;stroke-opacity:1;stroke-dasharray:none;stroke-dashoffset:0"
       id="rect4002"
       width="264.83887"
       height="1.7138673"
       x="-654.87872"
       y="424.72165" />
    <rect
       y="421.62048"
       x="-654.99683"
       height="4.803277"
       width="44.667992"
       id="rect4006"
       style="fill:#000000;fill-opacity:1;stroke:#000000;stroke-width:0.19672298;stroke-miterlimit:4;stroke-opacity:1;stroke-dasharray:none;stroke-dashoffset:0" />
    <rect
       style="fill:#000000;fill-opacity:1;stroke:#000000;stroke-width:0.19672298;stroke-miterlimit:4;stroke-opacity:1;stroke-dasharray:none;stroke-dashoffset:0"
       id="rect4008"
       width="44.667992"
       height="4.803277"
       x="-565.93463"
       y="421.62048" />
    <rect
       y="421.62048"
       x="-477.88889"
       height="4.803277"
       width="44.667992"
       id="rect4010"
       style="fill:#000000;fill-opacity:1;stroke:#000000;stroke-width:0.19672298;stroke-miterlimit:4;stroke-opacity:1;stroke-dasharray:none;stroke-dashoffset:0" />
    <text
       xml:space="preserve"
       style="font-size:12px;font-style:normal;font-weight:bold;fill:#000000;fill-opacity:1;stroke:none;font-family:Bitstream Vera Sans;-inkscape-font-specification:Sans Bold"
       x="-349.40363"
       y="453.11093"
       id="text6349-6"><tspan
         sodipodi:role="line"
         id="tspan6351-3"
         x="-349.40363"
         y="453.11093"
         style="font-size:14px;font-weight:normal;-inkscape-font-specification:Arial;font-family:Arial;font-style:normal;font-stretch:normal;font-variant:normal">Miles</tspan></text>
    <text
       id="text4035"
       y="427.11093"
       x="-349.40363"
       style="font-size:12px;font-style:normal;font-weight:bold;fill:#000000;fill-opacity:1;stroke:none;font-family:Bitstream Vera Sans;-inkscape-font-specification:Sans Bold"
       xml:space="preserve"><tspan
         style="font-size:14px;font-weight:normal;-inkscape-font-specification:Arial;font-family:Arial;font-style:normal;font-stretch:normal;font-variant:normal"
         y="427.11093"
         x="-349.40363"
         id="tspan4037"
         sodipodi:role="line">Kilometers</tspan></text>
    <text
       xml:space="preserve"
       style="font-size:12px;font-style:normal;font-variant:normal;font-weight:normal;font-stretch:normal;line-height:125%;letter-spacing:0px;word-spacing:0px;fill:#000000;fill-opacity:1;stroke:none;font-family:Arial;-inkscape-font-specification:Arial"
       x="-573.30603"
       y="415.76382"
       id="text4039"
       sodipodi:linespacing="125%"><tspan
         sodipodi:role="line"
         id="tspan4041"
         x="-573.30603"
         y="415.76382">50</tspan></text>
    <text
       sodipodi:linespacing="125%"
       id="text4064"
       y="415.76382"
       x="-489.30603"
       style="font-size:12px;font-style:normal;font-variant:normal;font-weight:normal;font-stretch:normal;line-height:125%;letter-spacing:0px;word-spacing:0px;fill:#000000;fill-opacity:1;stroke:none;font-family:Arial;-inkscape-font-specification:Arial"
       xml:space="preserve"><tspan
         y="415.76382"
         x="-489.30603"
         id="tspan4066"
         sodipodi:role="line">100</tspan></text>
    <text
       xml:space="preserve"
       style="font-size:12px;font-style:normal;font-variant:normal;font-weight:normal;font-stretch:normal;line-height:125%;letter-spacing:0px;word-spacing:0px;fill:#000000;fill-opacity:1;stroke:none;font-family:Arial;-inkscape-font-specification:Arial"
       x="-403.30603"
       y="415.76382"
       id="text4068"
       sodipodi:linespacing="125%"><tspan
         sodipodi:role="line"
         id="tspan4070"
         x="-403.30603"
         y="415.76382">150</tspan></text>
    <text
       xml:space="preserve"
       style="font-size:12px;font-style:normal;font-variant:normal;font-weight:normal;font-stretch:normal;line-height:125%;letter-spacing:0px;word-spacing:0px;fill:#000000;fill-opacity:1;stroke:none;font-family:Arial;-inkscape-font-specification:Arial"
       x="-517.82385"
       y="439.22797"
       id="text4039-5"
       sodipodi:linespacing="125%"><tspan
         sodipodi:role="line"
         id="tspan4041-2"
         x="-517.82385"
         y="439.22797">50</tspan></text>
    <text
       sodipodi:linespacing="125%"
       id="text4064-9"
       y="439.22797"
       x="-371.82385"
       style="font-size:12px;font-style:normal;font-variant:normal;font-weight:normal;font-stretch:normal;line-height:125%;letter-spacing:0px;word-spacing:0px;fill:#000000;fill-opacity:1;stroke:none;font-family:Arial;-inkscape-font-specification:Arial"
       xml:space="preserve"><tspan
         y="439.22797"
         x="-371.82385"
         id="tspan4066-8"
         sodipodi:role="line">100</tspan></text>
  </g>
</svg>
