<?xml version="1.0" encoding="UTF-8" standalone="no"?>
<!-- Created with Inkscape (http://www.inkscape.org/) -->
<svg
   xmlns:dc="http://purl.org/dc/elements/1.1/"
   xmlns:cc="http://web.resource.org/cc/"
   xmlns:rdf="http://www.w3.org/1999/02/22-rdf-syntax-ns#"
   xmlns:svg="http://www.w3.org/2000/svg"
   xmlns="http://www.w3.org/2000/svg"
   xmlns:sodipodi="http://sodipodi.sourceforge.net/DTD/sodipodi-0.dtd"
   xmlns:inkscape="http://www.inkscape.org/namespaces/inkscape"
   id="svg2"
   sodipodi:version="0.32"
   inkscape:version="0.45.1"
   width="125.19455"
   height="326.0574"
   version="1.0"
   sodipodi:docbase="C:\wtf\Desktop"
   sodipodi:docname="Jiahu_writing.svg"
   inkscape:output_extension="org.inkscape.output.svg.inkscape">
  <sodipodi:namedview
     inkscape:window-height="721"
     inkscape:window-width="1280"
     inkscape:pageshadow="2"
     inkscape:pageopacity="0.0"
     guidetolerance="10.0"
     gridtolerance="10.0"
     objecttolerance="10.0"
     borderopacity="1.0"
     bordercolor="#666666"
     pagecolor="#ffffff"
     id="base"
     showgrid="true"
     inkscape:zoom="1.1559633"
     inkscape:cx="80"
     inkscape:cy="163.5"
     inkscape:window-x="0"
     inkscape:window-y="20"
     inkscape:current-layer="svg2" />
  <metadata
     id="metadata7">
    <rdf:RDF>
      <cc:Work
         rdf:about="">
        <dc:format>image/svg+xml</dc:format>
        <dc:type
           rdf:resource="http://purl.org/dc/dcmitype/StillImage" />
        <cc:license
           rdf:resource="http://web.resource.org/cc/PublicDomain" />
      </cc:Work>
      <cc:License
         rdf:about="http://web.resource.org/cc/PublicDomain">
        <cc:permits
           rdf:resource="http://web.resource.org/cc/Reproduction" />
        <cc:permits
           rdf:resource="http://web.resource.org/cc/Distribution" />
        <cc:permits
           rdf:resource="http://web.resource.org/cc/DerivativeWorks" />
      </cc:License>
    </rdf:RDF>
  </metadata>
  <defs
     id="defs5" />
  <path
     style="fill:#000000"
     d="M 26.163402,325.22933 C 25.063402,324.77633 23.195142,323.08291 22.011712,321.46617 C 20.051932,318.78884 19.804202,316.83883 19.234232,299.6032 C 18.189732,268.01735 18.326352,266.49198 22.676812,261.1666 L 25.525332,257.67974 L 28.594372,260.61683 C 30.461442,262.40364 31.663402,264.56025 31.663402,266.12343 C 31.663402,267.53666 32.080252,270.1464 32.589732,271.92286 C 33.158162,273.90488 33.158162,275.37396 32.589732,275.72527 C 32.080252,276.04015 31.663402,277.14886 31.663402,278.18907 C 31.663402,279.22928 31.054042,280.44022 30.309272,280.88005 C 29.564492,281.31988 28.748852,282.80474 28.496722,284.17974 L 28.038312,286.67974 L 44.600862,286.86366 C 53.710252,286.96481 62.738402,287.35835 64.663402,287.73818 C 66.588402,288.11802 70.638402,288.61256 73.663402,288.83716 C 82.069462,289.4613 83.663405,289.99152 83.663405,292.16361 C 83.663405,293.23378 82.792985,294.57521 81.729142,295.14456 C 79.265162,296.46324 70.838942,296.48267 67.062622,295.17839 C 63.387312,293.90899 47.712932,293.29058 47.034562,294.38821 C 46.754412,294.84149 46.093632,294.94564 45.566162,294.61964 C 45.038682,294.29364 40.794772,293.79942 36.135252,293.52137 C 29.520882,293.12666 27.642662,293.30785 27.568802,294.34778 C 26.626992,307.60887 26.884942,313.22563 28.473172,314.03969 C 30.540162,315.09915 43.860072,316.50568 48.663402,316.17171 C 50.588402,316.03786 61.163402,315.87242 72.163402,315.80405 L 92.163405,315.67974 L 92.425205,304.74279 C 92.569185,298.72747 93.186165,291.97747 93.796255,289.74279 C 94.406345,287.50811 95.033015,280.72974 95.188845,274.67974 C 95.612365,258.23649 95.813185,247.83045 95.734045,246.42798 C 95.680235,245.47439 93.340965,245.31309 85.913405,245.75081 C 80.550902,246.06683 73.970692,246.29352 71.290712,246.25457 C 68.610732,246.21561 64.335732,246.90859 61.790712,247.79452 C 59.245692,248.68045 56.488402,249.49773 55.663402,249.61068 C 54.838402,249.72364 53.029692,250.29729 51.644042,250.88546 C 50.258392,251.47363 47.333392,251.70512 45.144042,251.39987 C 39.840062,250.66038 36.280012,250.72665 34.023052,251.6069 C 31.085362,252.75264 19.294122,252.96775 17.913402,251.90079 C 16.300932,250.65475 16.300932,246.7154 17.913402,245.42188 C 18.642322,244.83714 26.347192,244.42613 36.396492,244.43592 C 47.794182,244.44702 54.092162,244.06879 54.995682,243.31893 C 56.941882,241.70373 66.019882,240.14175 73.910462,240.0644 C 77.621352,240.02802 80.891982,239.61891 81.178532,239.15526 C 81.465092,238.6916 86.078915,238.34378 91.431475,238.38232 C 99.669425,238.44163 101.44644,238.7475 103.00708,240.37479 C 104.35835,241.78377 104.65629,243.01597 104.12266,244.98847 C 103.72221,246.46867 103.24825,253.01114 103.06942,259.52729 C 102.51229,279.82794 101.91023,288.17489 100.91114,289.44989 C 99.210975,291.61957 99.344215,303.88594 101.09509,306.38567 C 102.12087,307.85017 102.66341,310.82742 102.66341,314.99195 C 102.66341,320.37216 102.31463,321.65012 100.41341,323.23618 C 97.966065,325.27783 94.149085,325.7746 93.163405,324.17974 C 92.365355,322.88846 77.372142,322.871 76.083292,324.15985 C 75.454182,324.78896 73.860552,324.80204 71.633292,324.19636 C 65.747062,322.59567 32.029962,323.44607 30.213402,325.24103 C 29.109472,326.33184 28.838662,326.33105 26.163402,325.22933 z M 74.012092,222.22979 C 64.360722,217.43111 60.663402,214.743 60.663402,212.52475 C 60.663402,210.42205 62.328542,210.93857 64.516352,213.71992 C 65.615312,215.11702 69.810472,217.71157 73.838932,219.48558 C 83.704555,223.83011 85.376315,224.87158 84.163405,225.91752 C 83.571625,226.42783 79.427682,224.92244 74.012092,222.22979 z M 41.663402,222.72666 C 41.663402,222.47746 43.125902,221.56253 44.913402,220.69348 C 50.045722,218.19823 51.324662,216.92112 54.498692,211.12189 C 57.933062,204.84698 58.555362,202.0798 59.345782,189.56848 C 59.796572,182.4332 59.622332,180.2693 58.542402,179.59068 C 57.783952,179.11408 52.213402,178.67234 46.163402,178.60902 L 35.163402,178.49391 L 35.083612,170.08682 C 35.039732,165.46293 35.309842,158.52974 35.683872,154.67974 C 36.088132,150.51852 35.966042,147.16872 35.382832,146.41964 C 34.843242,145.72659 31.985622,144.45716 29.032582,143.59868 C 25.529352,142.58027 23.663402,141.50066 23.663402,140.49215 C 23.663402,139.35775 24.262082,139.12442 25.913402,139.61523 C 27.150902,139.98304 29.902212,140.55166 32.027432,140.87882 C 35.736752,141.44985 35.862712,141.37769 35.173312,139.0767 C 34.778322,137.75837 33.827012,135.68307 33.059272,134.46492 C 31.277722,131.63815 31.269722,129.17974 33.042082,129.17974 C 33.800352,129.17974 34.970772,130.64224 35.643002,132.42974 C 39.119082,141.6728 41.383872,144.60235 46.310452,146.22827 C 50.240442,147.52529 50.442152,148.37631 47.474842,151.14078 C 44.817932,153.61607 42.789612,153.7346 41.162692,151.50966 C 40.119882,150.08352 39.832072,150.55825 39.192372,154.75966 C 38.316022,160.51524 37.724422,166.09215 37.397462,171.67974 L 37.163402,175.67974 L 48.163402,175.67974 L 59.163402,175.67974 L 59.237522,165.17974 C 59.340642,150.57132 60.508412,139.03238 62.216972,135.73912 C 63.012512,134.20572 63.663402,132.15646 63.663402,131.18519 C 63.663402,127.41838 69.911992,110.17974 71.277372,110.17974 C 73.045862,110.17974 73.019752,110.59147 71.004762,114.4794 C 69.364602,117.64407 68.811542,119.4489 66.193622,130.17974 C 65.455632,133.20474 64.121852,138.33749 63.229662,141.58585 C 62.031282,145.94901 61.644872,151.36985 61.750562,162.33585 L 61.893622,177.17974 L 64.278512,177.30474 C 73.282372,177.77666 84.663405,180.06955 84.663405,181.41159 C 84.663405,182.02069 83.395615,182.17618 81.507752,181.79861 C 79.772142,181.45149 74.597142,180.87885 70.007752,180.52608 L 61.663402,179.88469 L 61.663402,186.59066 C 61.663402,198.4488 59.874052,206.65865 56.027762,212.44788 C 52.356112,217.97428 46.343322,223.07023 43.413402,223.13879 C 42.450902,223.16131 41.663402,222.97585 41.663402,222.72666 z M 92.913405,114.68391 C 92.225905,113.90304 91.663405,112.81991 91.663405,112.27695 C 91.663405,111.73399 90.143195,108.2275 88.285155,104.48475 C 86.427125,100.74199 84.344575,95.879743 83.657265,93.679743 C 82.096602,88.684227 81.233212,86.728758 78.322462,81.597065 C 76.181192,77.821995 73.663402,68.319407 73.663402,64.012962 C 73.663402,62.854358 74.389942,62.179743 75.637722,62.179743 C 77.767762,62.179743 80.663402,66.718616 80.663402,70.05742 C 80.663402,71.144768 82.238402,75.056083 84.163405,78.749232 C 86.088405,82.44238 87.663405,85.89457 87.663405,86.420766 C 87.663405,87.326385 88.181665,88.616902 92.044775,97.330872 C 92.935025,99.338994 93.663405,101.38099 93.663405,101.86864 C 93.663405,102.3563 94.995115,104.31329 96.622765,106.21751 C 99.600965,109.70179 100.17574,111.68105 99.056415,114.59795 C 98.307215,116.55034 94.602315,116.60218 92.913405,114.68391 z M 33.012942,102.43628 C 32.659772,101.02916 32.886652,99.051907 33.517112,98.042381 C 34.147572,97.032856 34.670172,95.413275 34.678462,94.443312 C 34.699572,91.96979 36.851012,86.06855 38.836322,83.038584 C 40.942912,79.823516 43.747002,73.179743 42.997362,73.179743 C 42.687172,73.179743 43.121302,72.129845 43.962092,70.846637 C 44.802882,69.563429 45.801192,66.443709 46.180552,63.913927 C 46.844372,59.487271 48.683012,57.455797 50.826612,58.780611 C 52.198652,59.628582 51.176242,68.065708 49.263492,71.679743 C 48.390222,73.329743 47.672952,75.440685 47.669562,76.370726 C 47.666172,77.300767 47.213402,78.339824 46.663402,78.679743 C 46.113402,79.019662 45.663402,80.531219 45.663402,82.03876 C 45.663402,83.546301 45.287782,85.207243 44.828682,85.729743 C 44.369592,86.252243 43.195302,88.929743 42.219152,91.679743 C 38.872492,101.10795 37.342212,104.03047 35.499852,104.51226 C 34.155892,104.86371 33.480732,104.30012 33.012942,102.43628 z M 59.520462,43.736886 C 59.324082,43.558883 56.834022,43.137163 53.987012,42.799729 C 51.139992,42.462296 47.606742,41.7285 46.135332,41.169073 C 42.967212,39.964554 32.197772,37.437599 25.163402,36.248189 C 14.678942,34.475421 4.2535922,30.005659 0.74627218,25.779593 C -0.46638782,24.318424 -0.30681782,23.758094 2.0109522,21.338868 C 3.4698022,19.816159 4.6634022,18.120704 4.6634022,17.571191 C 4.6634022,16.40254 9.5891722,11.712492 14.869772,7.8532604 C 16.908272,6.3634554 20.942452,4.6957604 23.834632,4.1472704 C 26.726802,3.5987814 29.536442,2.7067054 30.078262,2.1648804 C 30.620092,1.6230544 32.008402,1.1797434 33.163402,1.1797434 C 34.318402,1.1797434 35.690902,0.78852044 36.213402,0.31035944 C 37.082732,-0.48520154 53.930092,0.36256244 61.163402,1.5658504 C 62.813402,1.8403344 68.830912,2.5728004 74.535642,3.1935534 C 80.240372,3.8143054 86.039275,4.7523514 87.422095,5.2780984 C 88.804925,5.8038464 91.452885,6.4750254 93.306475,6.7696064 C 95.160055,7.0641884 97.911155,7.9492074 99.420015,8.7363164 C 100.92889,9.5234241 102.85358,10.170194 103.69713,10.173582 C 104.54068,10.176971 107.69068,11.770165 110.69713,13.714014 C 113.70358,15.657862 117.28841,17.51692 118.66341,17.845252 C 121.56989,18.539282 125.82566,22.108194 125.11601,23.256433 C 124.00772,25.049689 108.82559,35.870238 104.66341,37.83333 C 100.72867,39.68915 94.403025,41.808498 89.663405,42.858938 C 87.552875,43.326695 59.954742,44.130522 59.520462,43.736886 z M 88.893715,39.109812 C 89.845385,39.078279 90.841015,38.701382 91.106225,38.272265 C 91.567385,37.526088 90.236365,31.335132 88.936385,28.179743 C 88.596505,27.354743 88.192185,25.591675 88.037915,24.261815 C 87.712305,21.455067 79.487922,12.698973 76.912052,12.41667 C 75.950302,12.311266 73.495362,11.942876 71.456642,11.598027 C 66.372982,10.738123 56.317342,15.67864 50.498862,21.894964 C 48.114362,24.442512 44.960512,27.798766 43.490322,29.353306 C 42.020132,30.907846 40.332632,32.179743 39.740322,32.179743 C 34.785142,32.179743 47.919982,16.860923 56.894502,12.173266 C 60.046612,10.526828 63.448102,9.1797434 64.453372,9.1797434 C 65.458652,9.1797434 67.154102,8.5414164 68.221062,7.7612384 C 70.093642,6.3919754 70.070062,6.3199124 67.541732,5.6853424 C 63.909732,4.7737694 44.919842,4.5712764 40.663402,5.3987334 C 38.738402,5.7729564 35.138402,6.3634054 32.663402,6.7108434 C 27.213252,7.4759304 19.922702,10.796906 17.168002,13.769283 C 16.055732,14.969442 13.462172,16.654807 11.404542,17.51454 C 9.3469122,18.374272 7.6773122,19.663152 7.6943222,20.378716 C 7.7113322,21.094281 9.8488322,23.254743 12.444322,25.179743 C 15.039812,27.104743 17.613402,29.247118 18.163402,29.940577 C 18.713402,30.634036 23.438402,31.875689 28.663402,32.699807 C 33.888402,33.523925 39.063402,34.58391 40.163402,35.05533 C 42.067402,35.871312 48.036772,37.488327 55.663402,39.25405 C 58.582042,39.929777 64.986062,39.90198 88.893715,39.109812 z M 104.18819,34.138197 C 106.40182,33.146414 109.02185,31.441151 110.01048,30.348724 C 110.99912,29.256297 113.02544,27.858212 114.51342,27.241869 C 116.00141,26.625526 117.77907,25.224195 118.46378,24.1278 C 119.51928,22.43767 119.43898,22.04935 117.93606,21.575694 C 115.3716,20.76749 112.75746,19.495026 107.66341,16.575359 C 101.26714,12.909326 82.663405,7.4529044 82.663405,9.2429311 C 82.663405,9.6832741 84.019965,11.00951 85.677975,12.190121 C 88.824105,14.430362 93.023285,21.788422 92.052275,23.359553 C 91.743695,23.858843 91.995755,24.875274 92.612405,25.618288 C 93.229045,26.361302 93.645125,27.35409 93.537015,27.824483 C 93.428895,28.294876 93.863105,29.946538 94.501925,31.494843 C 95.140735,33.043147 95.663405,34.985972 95.663405,35.81223 C 95.663405,37.500774 97.478615,37.144316 104.18819,34.138197 z "
     id="path2163" />
</svg>
